<?xml version="1.0" encoding="UTF-8"?><svg id="Broken_Clouds" xmlns="http://www.w3.org/2000/svg" xmlns:xlink="http://www.w3.org/1999/xlink" viewBox="0 0 350 350"><defs><style>.cls-1{fill:url(#linear-gradient-2);}.cls-2{fill:url(#linear-gradient-6);}.cls-3{fill:url(#linear-gradient-5);}.cls-4{fill:url(#linear-gradient-3);}.cls-5{fill:url(#linear-gradient);}.cls-6{fill:#6aa3aa;}.cls-7{fill:#cceff2;}.cls-8{fill:url(#linear-gradient-4);}</style><linearGradient id="linear-gradient" x1="163.57" y1="160.86" x2="163.57" y2="110.09" gradientUnits="userSpaceOnUse"><stop offset="0" stop-color="#6aa3aa" stop-opacity="0"/><stop offset=".04" stop-color="#72a7ae" stop-opacity=".07"/><stop offset=".18" stop-color="#91b8bc" stop-opacity=".31"/><stop offset=".33" stop-color="#abc6c9" stop-opacity=".52"/><stop offset=".47" stop-color="#c0d1d3" stop-opacity=".7"/><stop offset=".61" stop-color="#d0dadb" stop-opacity=".83"/><stop offset=".75" stop-color="#dce0e1" stop-opacity=".92"/><stop offset=".88" stop-color="#e3e4e4" stop-opacity=".98"/><stop offset="1" stop-color="#e6e6e6"/></linearGradient><linearGradient id="linear-gradient-2" x1="217.87" y1="188.03" x2="217.87" y2="137.89" xlink:href="#linear-gradient"/><linearGradient id="linear-gradient-3" x1="112.75" y1="261.01" x2="112.75" y2="210.87" xlink:href="#linear-gradient"/><linearGradient id="linear-gradient-4" x1="173.83" y1="207.58" x2="325" y2="207.58" gradientTransform="translate(498.83 415.16) rotate(-180)" gradientUnits="userSpaceOnUse"><stop offset="0" stop-color="#c3cdd8"/><stop offset=".32" stop-color="#a7c0c9" stop-opacity=".69"/><stop offset="1" stop-color="#6aa3aa" stop-opacity="0"/></linearGradient><linearGradient id="linear-gradient-5" x1="27.87" y1="172.39" x2="132.12" y2="172.39" gradientTransform="translate(159.99 344.79) rotate(-180)" xlink:href="#linear-gradient-4"/><linearGradient id="linear-gradient-6" x1="153.84" y1="195.85" x2="277.22" y2="195.85" gradientTransform="matrix(1, 0, 0, 1, 0, 0)" xlink:href="#linear-gradient-4"/></defs><g><circle class="cls-6" cx="162.53" cy="175" r="87.75"/><path class="cls-5" d="m278.89,160.86c4.86,0,8.16-5.02,6.14-9.44-2.81-6.15-7.73-11.13-13.84-14.01-2.25-10.39-12.65-18.25-25.16-18.25-4.61,0-8.93,1.07-12.67,2.94-5.32-4.46-12.18-7.14-19.66-7.14-11.6,0-21.69,6.44-26.9,15.95-5.6-4.99-13.66-8.13-22.61-8.13-5.41,0-10.49,1.15-14.9,3.15-5.91-9.51-16.44-15.84-28.46-15.84-8.18,0-15.66,2.93-21.48,7.8-4.08-2.04-8.8-3.21-13.84-3.21-13.66,0-25.03,8.58-27.48,19.93-7.55,3.56-13.44,10.05-16.2,18.01-1.29,3.72,1.5,7.61,5.44,7.61l231.62.63Z"/><path class="cls-1" d="m275.42,158.71c-5.6-4.99-13.66-8.13-22.61-8.13-5.41,0-10.49,1.15-14.9,3.15-5.91-9.51-16.44-15.84-28.46-15.84-8.18,0-15.66,2.93-21.48,7.8-4.08-2.04-8.8-3.21-13.84-3.21-13.66,0-25.03,8.58-27.48,19.93-7.55,3.56-13.44,10.05-16.2,18.01-1.29,3.72,1.5,7.61,5.44,7.61l162.99-1.1c4.86,0,8.16-5.02,6.14-9.44-2.81-6.15-7.73-11.13-13.84-14.01,0,0-6.11-4.55-15.76-4.76Z"/><path class="cls-4" d="m170.29,231.69c-5.6-4.99-13.66-8.13-22.61-8.13-5.41,0-10.49,1.15-14.9,3.15-5.91-9.51-16.44-15.84-28.46-15.84-8.18,0-15.66,2.93-21.48,7.8-4.08-2.04-8.8-3.21-13.84-3.21-13.66,0-25.03,8.58-27.48,19.93-7.55,3.56-13.44,10.05-16.2,18.01-1.29,3.72,1.5,7.61,5.44,7.61l162.99-1.1c4.86,0,8.16-5.02,6.14-9.44-2.81-6.15-7.73-11.13-13.84-14.01,0,0-6.11-4.55-15.76-4.76Z"/><rect class="cls-8" x="173.83" y="204.54" width="151.17" height="6.08" transform="translate(498.83 415.16) rotate(180)"/><rect class="cls-3" x="27.87" y="169.79" width="104.26" height="5.21" transform="translate(159.99 344.79) rotate(180)"/><rect class="cls-2" x="153.84" y="190.64" width="123.37" height="10.43"/></g><path class="cls-7" d="m283.54,235.7c-18.28-5.63-37.3-8.8-56.42-9.39-9.01-.28-18.22-.24-27.16,1.08-7.6,1.12-15.63,3.84-20.47,10.15-2.38,3.1-3.57,7.1-2.23,10.91,1.22,3.46,3.96,6.18,7.1,7.98,3.73,2.14,7.97,2.77,12.19,3.14,2.31.2,4.64.32,6.95.57,2.06.23,4.31.49,6.21,1.39,1.3.62,2.78,1.71,2.55,3.35-.22,1.5-1.82,2.45-3.05,3.05-1.73.84-3.67,1.16-5.54,1.5-2.11.38-4.23.66-6.37.87-8.75.83-17.54.45-26.31.41-8.5-.03-17.11.25-25.39,2.36-4.01,1.03-8.17,2.44-11.72,4.61-3.15,1.92-5.7,5.12-4.78,9.01.37,1.56,1.37,2.93,2.81,3.64,1.73.85,3.25-1.73,1.51-2.59-1.33-.66-1.73-2.15-1.44-3.54.37-1.77,1.94-3.04,3.41-3.93,3.47-2.11,7.49-3.43,11.41-4.41,8.04-1.99,16.38-2.19,24.62-2.15,8.41.04,16.85.38,25.24-.36,3.95-.35,8.17-.74,11.96-1.99,2.91-.96,6.18-2.86,6.61-6.19.48-3.7-2.85-6.06-5.99-7.02-4.13-1.27-8.64-1.23-12.91-1.61s-8.09-1.07-11.54-3.39c-2.76-1.85-5.18-4.81-5.1-8.29.08-3.87,3.15-7.15,6.13-9.26s6.65-3.55,10.32-4.43c8.11-1.95,16.78-1.98,25.08-1.96,18.55.05,37.06,2.57,54.95,7.47,2.2.6,4.4,1.25,6.58,1.92,1.85.57,2.64-2.32.8-2.89h0Z"/></svg>