<?xml version="1.0" encoding="UTF-8"?><svg id="Few_Clouds" xmlns="http://www.w3.org/2000/svg" xmlns:xlink="http://www.w3.org/1999/xlink" viewBox="0 0 350 350"><defs><style>.cls-1{fill:url(#linear-gradient-2);}.cls-2{fill:#ffff9f;}.cls-3{fill:url(#linear-gradient-5);}.cls-4{fill:#fdbf30;}.cls-5{fill:url(#New_Gradient_Swatch_1);}.cls-6{fill:url(#linear-gradient-3);}.cls-7{fill:url(#linear-gradient);}.cls-8{fill:url(#linear-gradient-4);}</style><linearGradient id="linear-gradient" x1="62.55" y1="155.37" x2="221.4" y2="155.37" gradientUnits="userSpaceOnUse"><stop offset="0" stop-color="#ffff9f"/><stop offset="1" stop-color="#fdbf30"/></linearGradient><linearGradient id="linear-gradient-2" x1="-2413.52" y1="25.74" x2="-2254.67" y2="25.74" gradientTransform="translate(2579.67 146.52)" gradientUnits="userSpaceOnUse"><stop offset="0" stop-color="#ffff9f"/><stop offset=".3" stop-color="#fee674"/><stop offset=".6" stop-color="#fdd14f"/><stop offset=".84" stop-color="#fdc338"/><stop offset="1" stop-color="#fdbf30"/></linearGradient><linearGradient id="New_Gradient_Swatch_1" x1="-2259.23" y1="35.32" x2="-2149.68" y2="35.32" gradientTransform="translate(2320.39 127.35)" gradientUnits="userSpaceOnUse"><stop offset="0" stop-color="#fdbf30"/><stop offset="1" stop-color="#ffff9f"/></linearGradient><linearGradient id="linear-gradient-3" x1="-2368.79" y1="58.15" x2="-2239.15" y2="58.15" gradientTransform="translate(-2088.52 198) rotate(-180)" xlink:href="#linear-gradient"/><linearGradient id="linear-gradient-4" x1="153.26" y1="239.57" x2="153.26" y2="186.22" gradientUnits="userSpaceOnUse"><stop offset="0" stop-color="#6aa3aa" stop-opacity="0"/><stop offset=".04" stop-color="#72a7ae" stop-opacity=".07"/><stop offset=".18" stop-color="#91b8bc" stop-opacity=".31"/><stop offset=".33" stop-color="#abc6c9" stop-opacity=".52"/><stop offset=".47" stop-color="#c0d1d3" stop-opacity=".7"/><stop offset=".61" stop-color="#d0dadb" stop-opacity=".83"/><stop offset=".75" stop-color="#dce0e1" stop-opacity=".92"/><stop offset=".88" stop-color="#e3e4e4" stop-opacity=".98"/><stop offset="1" stop-color="#e6e6e6"/></linearGradient><linearGradient id="linear-gradient-5" x1="210.32" y1="268.12" x2="210.32" y2="215.43" xlink:href="#linear-gradient-4"/></defs><circle class="cls-4" cx="174.37" cy="174.09" r="92.21"/><rect class="cls-7" x="62.55" y="152.18" width="158.85" height="6.39"/><rect class="cls-1" x="166.15" y="165.87" width="158.85" height="12.78" transform="translate(491.15 344.52) rotate(180)"/><rect class="cls-5" x="61.16" y="156.74" width="109.55" height="11.87" transform="translate(231.87 325.35) rotate(180)"/><rect class="cls-6" x="150.63" y="132.09" width="129.64" height="15.52"/><path class="cls-2" d="m274.74,84.29c-4.6,6.49-12.09,10.06-19.71,11.63-9.15,1.89-18.56.72-27.7-.63-16.89-2.49-36.94-5.63-50.95,6.79-5.59,4.96-9.67,12.68-17.01,15.33-4.61,1.66-9.67,1.14-14.48,1.08s-9.9,0-14.85.24c-18.9.89-37.97,4.26-55.1,12.59-14.58,7.09-27.73,17.81-36.27,31.71-1.07,1.74-2.06,3.54-2.98,5.37-.86,1.72,1.73,3.24,2.59,1.51,7.37-14.72,19.86-26.18,34.22-33.97,16.56-8.99,35.4-12.84,54.06-14.02,4.94-.31,9.89-.45,14.85-.45s9.65.45,14.4-.17c4.24-.55,7.9-2.31,11.14-5.07,2.98-2.54,5.42-5.63,8.05-8.52s5.67-5.56,9.25-7.43,7.79-3.09,11.91-3.73c9.23-1.44,18.59-.12,27.74,1.25s18.91,2.89,28.39,1.61c7.71-1.04,15.44-3.81,21.21-9.18,1.43-1.33,2.69-2.83,3.82-4.42s-1.48-3.08-2.59-1.51h0Z"/><path class="cls-8" d="m274.44,239.57c5.11,0,8.57-5.28,6.45-9.92-2.95-6.46-8.12-11.7-14.54-14.72-2.36-10.92-13.3-19.18-26.44-19.18-4.85,0-9.39,1.13-13.31,3.09-5.59-4.68-12.8-7.5-20.66-7.5-12.19,0-22.79,6.77-28.26,16.75-5.89-5.25-14.35-8.54-23.76-8.54-5.68,0-11.02,1.21-15.65,3.31-6.21-9.99-17.28-16.65-29.9-16.65-8.59,0-16.46,3.08-22.57,8.2-4.29-2.15-9.25-3.38-14.54-3.38-14.36,0-26.3,9.02-28.88,20.95-7.93,3.74-14.13,10.56-17.03,18.93-1.36,3.91,1.58,7.99,5.72,7.99l243.39.67Z"/><path class="cls-3" d="m270.79,237.31c-5.89-5.25-14.35-8.54-23.76-8.54-5.68,0-11.02,1.21-15.65,3.31-6.21-9.99-17.28-16.65-29.9-16.65-8.59,0-16.46,3.08-22.57,8.2-4.29-2.15-9.25-3.38-14.54-3.38-14.36,0-26.3,9.02-28.88,20.95-7.93,3.74-14.13,10.56-17.03,18.93-1.36,3.91,1.58,7.99,5.72,7.99l171.27-1.16c5.11,0,8.57-5.28,6.45-9.92-2.95-6.46-8.12-11.7-14.54-14.72,0,0-6.42-4.78-16.56-5.01Z"/></svg>