<?xml version="1.0" encoding="UTF-8"?><svg id="Mist" xmlns="http://www.w3.org/2000/svg" xmlns:xlink="http://www.w3.org/1999/xlink" viewBox="0 0 350 350"><defs><style>.cls-1{fill:url(#linear-gradient-2);}.cls-2{fill:url(#linear-gradient-14);}.cls-3{fill:url(#linear-gradient-6);}.cls-4{fill:#dae6ef;}.cls-5{fill:url(#linear-gradient-11);}.cls-6{fill:url(#linear-gradient-10);}.cls-7{fill:url(#linear-gradient-5);}.cls-8{fill:url(#linear-gradient-7);}.cls-9{fill:url(#linear-gradient-9);}.cls-10{fill:url(#linear-gradient-3);}.cls-11{fill:url(#linear-gradient);}.cls-12{fill:#6aa3aa;}.cls-13{fill:url(#linear-gradient-4);}.cls-14{fill:url(#linear-gradient-8);}.cls-15{fill:url(#linear-gradient-12);}.cls-16{fill:url(#linear-gradient-13);}</style><linearGradient id="linear-gradient" x1="51.99" y1="108.74" x2="178.11" y2="109.04" gradientUnits="userSpaceOnUse"><stop offset="0" stop-color="#c3cdd8"/><stop offset=".75" stop-color="#81adb5"/><stop offset="1" stop-color="#6aa3aa"/></linearGradient><linearGradient id="linear-gradient-2" x1="75.19" y1="120.91" x2="201.3" y2="121.21" xlink:href="#linear-gradient"/><linearGradient id="linear-gradient-3" x1="198.89" y1="131.05" x2="325" y2="131.35" gradientUnits="userSpaceOnUse"><stop offset="0" stop-color="#6aa3aa"/><stop offset=".25" stop-color="#81adb5"/><stop offset="1" stop-color="#c3cdd8"/></linearGradient><linearGradient id="linear-gradient-4" x1="123.35" y1="98.59" x2="278.99" y2="98.59" gradientUnits="userSpaceOnUse"><stop offset="0" stop-color="#6aa3aa" stop-opacity="0"/><stop offset=".17" stop-color="#7eacb4" stop-opacity=".23"/><stop offset=".38" stop-color="#96b8c1" stop-opacity=".5"/><stop offset=".58" stop-color="#a9c1cb" stop-opacity=".72"/><stop offset=".76" stop-color="#b7c7d2" stop-opacity=".87"/><stop offset=".9" stop-color="#bfcbd6" stop-opacity=".97"/><stop offset="1" stop-color="#c3cdd8"/></linearGradient><linearGradient id="linear-gradient-5" x1="142.61" y1="82.36" x2="236.41" y2="82.36" xlink:href="#linear-gradient-4"/><linearGradient id="linear-gradient-6" x1="127.41" y1="151.31" x2="301.05" y2="151.31" xlink:href="#linear-gradient-4"/><linearGradient id="linear-gradient-7" x1="111.18" y1="229.76" x2="266.82" y2="229.76" gradientUnits="userSpaceOnUse"><stop offset="0" stop-color="#6aa3aa"/><stop offset=".25" stop-color="#81adb5"/><stop offset="1" stop-color="#c3cdd8"/></linearGradient><linearGradient id="linear-gradient-8" x1="157.83" y1="242.94" x2="313.47" y2="242.94" xlink:href="#linear-gradient-4"/><linearGradient id="linear-gradient-9" x1="172.02" y1="259.16" x2="268.85" y2="259.16" xlink:href="#linear-gradient-4"/><linearGradient id="linear-gradient-10" x1="204.47" y1="215.56" x2="301.3" y2="215.56" xlink:href="#linear-gradient-4"/><linearGradient id="linear-gradient-11" x1="25" y1="163.48" x2="229.31" y2="163.48" gradientUnits="userSpaceOnUse"><stop offset="0" stop-color="#c3cdd8"/><stop offset=".32" stop-color="#a7c0c9" stop-opacity=".69"/><stop offset="1" stop-color="#6aa3aa" stop-opacity="0"/></linearGradient><linearGradient id="linear-gradient-12" x1="38.26" y1="146.13" x2="161.46" y2="146.13" xlink:href="#linear-gradient-11"/><linearGradient id="linear-gradient-13" x1="140.33" y1="175.65" x2="313.97" y2="175.65" xlink:href="#linear-gradient-4"/><linearGradient id="linear-gradient-14" x1="32.09" y1="194.91" x2="236.41" y2="194.91" gradientUnits="userSpaceOnUse"><stop offset="0" stop-color="#c3cdd8"/><stop offset=".32" stop-color="#a7c0c9" stop-opacity=".69"/><stop offset="1" stop-color="#6aa3aa" stop-opacity="0"/></linearGradient></defs><circle class="cls-12" cx="171.01" cy="171.96" r="102.41"/><path class="cls-11" d="m52,108.14c2.63-.87,5.26-1.45,7.89-1.93,2.63-.47,5.26-.81,7.89-1.06,2.63-.25,5.26-.41,7.88-.47,2.63-.1,5.25-.02,7.88.28,5.25.6,10.5,2.08,15.75,2.37,5.25.33,10.51-.1,15.77-.95,2.63-.4,5.26-.83,7.89-1.13,2.63-.31,5.26-.44,7.88-.6,5.26-.32,10.51-.66,15.77-.49,5.25.18,10.51.61,15.76,1.31,5.25.71,10.5,1.62,15.75,3.17v.9c-5.26,1.51-10.52,2.37-15.78,3.04-5.26.66-10.51,1.05-15.77,1.19-5.26.13-10.51-.25-15.76-.62-2.63-.18-5.25-.34-7.88-.66-2.63-.31-5.25-.77-7.88-1.19-5.25-.89-10.5-1.36-15.76-1.08-5.26.24-10.52,1.68-15.77,2.24-2.63.28-5.26.34-7.88.22-2.63-.08-5.25-.26-7.88-.53-2.63-.27-5.25-.63-7.88-1.12-2.63-.5-5.25-1.1-7.87-1.99v-.9Z"/><path class="cls-1" d="m75.19,120.11c2.63-1.28,5.26-2.09,7.89-2.8,2.63-.69,5.26-1.19,7.89-1.55,2.63-.38,5.26-.59,7.89-.7,2.63-.13,5.25-.05,7.88.4,5.25.87,10.5,2.98,15.75,3.4,5.25.47,10.51-.18,15.77-1.4,2.63-.58,5.26-1.21,7.89-1.64,2.63-.45,5.26-.64,7.89-.88,5.26-.47,10.51-.97,15.77-.74,2.63.11,5.25.33,7.88.66,2.63.3,5.25.71,7.88,1.21,2.63.5,5.25,1.09,7.87,1.83,2.62.74,5.25,1.58,7.87,2.72v1.3c-2.64,1.13-5.27,1.94-7.9,2.66-2.63.71-5.26,1.29-7.89,1.76-2.63.48-5.26.87-7.89,1.15-2.63.31-5.26.51-7.88.6-5.26.19-10.51-.35-15.76-.87-2.63-.26-5.25-.48-7.88-.94-2.63-.45-5.25-1.1-7.88-1.7-5.25-1.27-10.5-1.96-15.76-1.53-5.26.37-10.52,2.44-15.78,3.27-2.63.43-5.26.48-7.88.34-2.63-.13-5.25-.36-7.88-.76-2.63-.38-5.25-.9-7.88-1.61-2.62-.73-5.25-1.56-7.87-2.87v-1.3Z"/><path class="cls-10" d="m198.89,130.25c2.63-1.28,5.26-2.09,7.89-2.8,2.63-.69,5.26-1.19,7.89-1.55,2.63-.38,5.26-.59,7.88-.7,2.63-.13,5.25-.05,7.88.4,5.25.87,10.5,2.98,15.75,3.4,5.25.47,10.51-.18,15.77-1.4,2.63-.58,5.26-1.21,7.89-1.64,2.63-.45,5.26-.64,7.89-.88,5.26-.47,10.51-.97,15.77-.74,2.63.11,5.25.33,7.88.66,2.63.3,5.25.71,7.88,1.21,2.63.5,5.25,1.09,7.87,1.83,2.62.74,5.25,1.58,7.87,2.72v1.3c-2.64,1.13-5.27,1.94-7.9,2.66-2.63.71-5.26,1.29-7.89,1.76-2.63.48-5.26.87-7.89,1.15-2.63.31-5.26.51-7.88.6-5.26.19-10.51-.35-15.76-.87-2.63-.26-5.25-.48-7.88-.94-2.63-.45-5.25-1.1-7.88-1.7-5.25-1.27-10.5-1.96-15.76-1.53-5.26.37-10.52,2.44-15.78,3.27-2.63.43-5.26.48-7.88.34-2.63-.13-5.25-.36-7.88-.76-2.63-.38-5.25-.9-7.88-1.61-2.62-.73-5.25-1.56-7.87-2.87v-1.3Z"/><path class="cls-13" d="m123.35,98.56c6.48-1.54,12.96-2.28,19.45-2.78,3.24-.24,6.48-.4,9.73-.47,3.24-.11,6.48-.06,9.73.19,6.49.5,12.98,1.76,19.46,1.98,3.24.13,6.49.08,9.73-.09,3.24-.16,6.48-.51,9.72-.88,3.24-.35,6.48-.79,9.72-1.05,3.24-.31,6.48-.44,9.73-.6,6.48-.32,12.97-.66,19.45-.55,6.49.12,12.97.46,19.46,1.06,6.49.61,12.97,1.34,19.46,2.69v.8c-6.48,1.39-12.96,2.16-19.44,2.81-6.48.64-12.97,1.02-19.45,1.19-6.48.15-12.97-.15-19.46-.43-3.24-.15-6.49-.25-9.73-.54-3.24-.24-6.49-.66-9.73-.99-3.24-.34-6.49-.67-9.73-.81-3.24-.14-6.49-.17-9.73-.02-6.48.26-12.97,1.57-19.45,2.11-3.24.27-6.48.34-9.73.25-3.24-.05-6.49-.19-9.73-.41-6.49-.46-12.97-1.15-19.46-2.65v-.8Z"/><path class="cls-7" d="m142.61,82.13c1.95-1.2,3.9-1.97,5.85-2.65,1.95-.66,3.9-1.14,5.85-1.49,1.95-.37,3.9-.58,5.86-.71,1.95-.13,3.91-.09,5.86.31,3.91.75,7.83,2.67,11.74,3.01,3.91.39,7.81-.25,11.72-1.42,1.95-.56,3.9-1.16,5.85-1.58,1.95-.43,3.9-.64,5.86-.87,3.91-.48,7.81-.98,11.72-.8,1.95.08,3.91.27,5.86.55,1.96.26,3.91.62,5.87,1.06,3.91.91,7.83,2.05,11.75,4.08v1.2c-3.89,2.07-7.79,3.26-11.69,4.2-1.95.46-3.9.84-5.86,1.12-1.95.3-3.91.51-5.86.61-3.91.22-7.82-.24-11.73-.68-1.96-.22-3.91-.4-5.87-.81-1.96-.39-3.91-.97-5.87-1.51-3.91-1.13-7.83-1.73-11.73-1.29-3.91.38-7.8,2.34-11.71,3.14-1.95.42-3.91.49-5.86.38-1.95-.1-3.91-.29-5.87-.64-1.96-.33-3.91-.79-5.87-1.42-1.96-.65-3.92-1.4-5.88-2.58v-1.2Z"/><path class="cls-3" d="m127.41,150.83c3.61-1.7,7.23-2.79,10.84-3.74,3.61-.93,7.23-1.6,10.85-2.1,3.62-.52,7.23-.82,10.85-.99,3.62-.19,7.23-.11,10.85.45,7.24,1.09,14.48,3.8,21.72,4.3,3.62.29,7.24.17,10.85-.16,3.62-.32,7.23-1.06,10.85-1.82,1.81-.39,3.61-.82,5.42-1.18,1.81-.38,3.62-.75,5.42-1.04,3.62-.61,7.23-.89,10.85-1.23,7.23-.67,14.47-1.37,21.7-1.11,3.62.12,7.24.39,10.85.79,3.62.37,7.24.89,10.86,1.51,3.62.63,7.24,1.38,10.86,2.32,3.62.94,7.24,2.01,10.86,3.49v1.7c-3.61,1.5-7.22,2.59-10.84,3.55-3.61.96-7.23,1.73-10.85,2.38-3.62.65-7.23,1.18-10.85,1.58-3.62.43-7.23.72-10.85.85-7.23.3-14.47-.36-21.71-.99-3.62-.31-7.24-.57-10.86-1.16-1.81-.27-3.62-.63-5.43-1.01-1.81-.35-3.62-.77-5.43-1.15-3.62-.75-7.24-1.46-10.86-1.76-3.62-.31-7.24-.41-10.85-.09-7.23.54-14.46,3.29-21.69,4.42-3.62.58-7.23.68-10.85.51-3.62-.15-7.24-.43-10.86-.93-3.62-.48-7.24-1.13-10.86-2.03-3.62-.93-7.24-2-10.86-3.67v-1.7Z"/><path class="cls-8" d="m111.18,229.36c6.49-1.52,12.97-2.24,19.46-2.72,3.24-.23,6.48-.38,9.73-.44,3.24-.1,6.49-.04,9.73.22,6.48.52,12.97,1.8,19.45,2.05,3.24.14,6.49.1,9.73-.06,3.24-.15,6.48-.49,9.73-.84,3.24-.34,6.48-.77,9.73-1.02,3.24-.3,6.49-.41,9.73-.57,6.48-.29,12.97-.62,19.45-.49,6.49.14,12.97.5,19.46,1.12,6.48.63,12.97,1.39,19.45,2.75v.8c-6.48,1.36-12.97,2.12-19.45,2.75-6.49.62-12.97.98-19.46,1.12-6.48.13-12.97-.2-19.45-.49-3.24-.16-6.48-.27-9.73-.57-3.24-.25-6.48-.68-9.73-1.02-3.24-.35-6.49-.69-9.73-.84-3.24-.15-6.48-.19-9.73-.06-6.48.24-12.97,1.53-19.45,2.05-3.24.26-6.48.32-9.73.22-3.24-.06-6.48-.21-9.73-.44-6.49-.48-12.97-1.2-19.46-2.72v-.8Z"/><path class="cls-14" d="m157.83,242.54c6.49-1.52,12.97-2.24,19.46-2.72,3.24-.23,6.48-.38,9.73-.44,3.24-.1,6.49-.04,9.73.22,6.48.52,12.97,1.8,19.45,2.05,3.24.14,6.49.1,9.73-.06,3.24-.15,6.48-.49,9.73-.84,3.24-.34,6.48-.77,9.73-1.02,3.24-.3,6.49-.41,9.73-.57,6.48-.29,12.97-.62,19.45-.49,6.49.14,12.97.5,19.46,1.12,6.48.63,12.97,1.39,19.45,2.75v.8c-6.48,1.36-12.97,2.12-19.45,2.75-6.49.62-12.97.98-19.46,1.12-6.48.13-12.97-.2-19.45-.49-3.24-.16-6.48-.27-9.73-.57-3.24-.25-6.48-.68-9.73-1.02-3.24-.35-6.49-.69-9.73-.84-3.24-.15-6.48-.19-9.73-.06-6.48.24-12.97,1.53-19.45,2.05-3.24.26-6.48.32-9.73.22-3.24-.06-6.48-.21-9.73-.44-6.49-.48-12.97-1.2-19.46-2.72v-.8Z"/><path class="cls-9" d="m172.02,258.46c2.02-1.39,4.03-2.28,6.05-3.05,2.02-.76,4.03-1.29,6.05-1.71,2.02-.4,4.03-.65,6.05-.78,2.02-.15,4.03-.07,6.05.4,4.03.92,8.07,3.17,12.1,3.59,4.03.48,8.07-.24,12.1-1.58,2.02-.64,4.03-1.33,6.05-1.8,2.02-.49,4.03-.72,6.05-.98,4.03-.54,8.07-1.1,12.1-.86,2.02.1,4.03.33,6.05.68,2.02.32,4.03.75,6.05,1.27,2.02.53,4.03,1.15,6.05,1.93,2.02.79,4.03,1.68,6.05,2.9v1.4c-2.02,1.22-4.03,2.11-6.05,2.9-2.02.78-4.03,1.41-6.05,1.93-2.02.53-4.03.96-6.05,1.27-2.02.34-4.03.57-6.05.68-4.03.24-8.07-.33-12.1-.86-2.02-.27-4.03-.49-6.05-.98-2.02-.47-4.03-1.16-6.05-1.8-4.03-1.34-8.07-2.06-12.1-1.58-4.03.42-8.07,2.68-12.1,3.59-2.02.47-4.03.54-6.05.4-2.02-.13-4.03-.38-6.05-.78-2.02-.42-4.03-.95-6.05-1.71-2.02-.77-4.03-1.66-6.05-3.05v-1.4Z"/><path class="cls-6" d="m204.47,214.86c2.02-1.39,4.03-2.28,6.05-3.05,2.02-.76,4.03-1.29,6.05-1.71,2.02-.4,4.03-.65,6.05-.78,2.02-.15,4.03-.07,6.05.4,4.03.92,8.07,3.17,12.1,3.59,4.03.48,8.07-.24,12.1-1.58,2.02-.64,4.03-1.33,6.05-1.8,2.02-.49,4.03-.72,6.05-.98,4.03-.54,8.07-1.1,12.1-.86,2.02.1,4.03.33,6.05.68,2.02.32,4.03.75,6.05,1.27,2.02.53,4.03,1.15,6.05,1.93,2.02.79,4.03,1.68,6.05,2.9v1.4c-2.02,1.22-4.03,2.11-6.05,2.9-2.02.78-4.03,1.41-6.05,1.93-2.02.53-4.03.96-6.05,1.27-2.02.34-4.03.57-6.05.68-4.03.24-8.07-.33-12.1-.86-2.02-.27-4.03-.49-6.05-.98-2.02-.47-4.03-1.16-6.05-1.8-4.03-1.34-8.07-2.06-12.1-1.58-4.03.42-8.07,2.68-12.1,3.59-2.02.47-4.03.54-6.05.4-2.02-.13-4.03-.38-6.05-.78-2.02-.42-4.03-.95-6.05-1.71-2.02-.77-4.03-1.66-6.05-3.05v-1.4Z"/><path class="cls-5" d="m25,163.25c4.25-1.2,8.51-1.97,12.76-2.65,4.25-.66,8.51-1.14,12.77-1.49,4.26-.35,8.51-.59,12.77-.7,4.26-.15,8.51-.08,12.77.3,8.51.75,17.03,2.67,25.55,3.01,8.51.39,17.03-.24,25.54-1.41,4.26-.56,8.51-1.16,12.77-1.58,4.26-.43,8.51-.64,12.77-.87,8.51-.48,17.02-.97,25.54-.8,8.51.19,17.03.72,25.54,1.6,8.52.9,17.03,2.06,25.55,4.08v1.2c-8.5,2.06-17.01,3.26-25.53,4.2-8.51.92-17.02,1.5-25.53,1.73-8.51.22-17.03-.24-25.54-.67-4.26-.22-8.51-.4-12.77-.81-4.26-.39-8.52-.97-12.77-1.51-8.52-1.14-17.03-1.72-25.54-1.29-8.51.37-17.02,2.34-25.53,3.13-4.26.4-8.51.5-12.77.36-4.26-.08-8.51-.3-12.77-.63-4.26-.33-8.51-.79-12.77-1.43-4.26-.65-8.52-1.4-12.78-2.58v-1.2Z"/><path class="cls-15" d="m38.18,146.02c2.56-1.2,5.12-1.97,7.69-2.65,2.56-.66,5.13-1.14,7.69-1.49,2.57-.36,5.13-.59,7.7-.71,2.57-.13,5.13-.09,7.7.31,5.14.75,10.28,2.67,15.41,3.01,5.13.38,10.27-.24,15.39-1.42,2.56-.56,5.13-1.16,7.69-1.58,2.56-.43,5.13-.64,7.7-.87,5.13-.48,10.26-.98,15.4-.8,2.57.08,5.13.27,7.7.55,2.57.26,5.14.62,7.7,1.06,5.14.91,10.27,2.05,15.42,4.08v1.2c-5.12,2.07-10.25,3.26-15.38,4.2-2.56.46-5.13.84-7.7,1.12-2.57.3-5.13.51-7.7.61-5.13.22-10.27-.24-15.4-.68-2.57-.22-5.13-.4-7.7-.81-2.57-.39-5.14-.97-7.71-1.51-5.14-1.14-10.27-1.71-15.4-1.29-5.13.38-10.26,2.34-15.39,3.14-2.56.42-5.13.49-7.7.38-2.57-.09-5.13-.31-7.7-.64-2.57-.33-5.14-.79-7.71-1.42-2.57-.65-5.14-1.4-7.71-2.58v-1.2Z"/><path class="cls-16" d="m140.33,175.62c7.23-1.54,14.46-2.28,21.7-2.78,3.62-.24,7.23-.4,10.85-.47,3.62-.11,7.23-.06,10.85.19,7.24.5,14.48,1.76,21.71,1.98,3.62.13,7.24.08,10.85-.09,3.62-.16,7.23-.51,10.85-.88,3.62-.35,7.23-.79,10.85-1.05,3.62-.31,7.23-.44,10.85-.6,7.23-.32,14.47-.66,21.7-.55,7.24.12,14.47.46,21.71,1.06,7.24.61,14.47,1.34,21.71,2.69v.8c-7.23,1.39-14.46,2.16-21.69,2.81-7.23.64-14.47,1.02-21.7,1.19-7.23.15-14.47-.15-21.71-.43-3.62-.15-7.24-.25-10.85-.54-3.62-.24-7.24-.66-10.86-.99-3.62-.34-7.24-.67-10.85-.81-3.62-.14-7.24-.17-10.85-.02-7.23.26-14.47,1.57-21.7,2.11-3.62.27-7.23.34-10.85.25-3.62-.05-7.24-.19-10.85-.41-7.24-.46-14.47-1.15-21.71-2.65v-.8Z"/><path class="cls-2" d="m32.09,194.18c4.25-2.2,8.5-3.6,12.76-4.83,4.25-1.19,8.51-2.07,12.76-2.72,4.25-.64,8.51-1.04,12.77-1.26,4.26-.24,8.51-.14,12.77.59,8.52,1.4,17.04,4.94,25.55,5.58,4.26.38,8.51.26,12.77-.19,4.26-.44,8.51-1.34,12.76-2.36,4.25-1.02,8.51-2.12,12.76-2.86,4.25-.78,8.51-1.15,12.77-1.58,4.26-.43,8.51-.86,12.77-1.17,4.26-.29,8.51-.41,12.77-.25,8.51.33,17.03,1.38,25.55,3,4.26.81,8.52,1.79,12.78,3.01,4.26,1.23,8.52,2.6,12.78,4.52v2.2c-4.25,1.95-8.5,3.33-12.75,4.59-4.25,1.23-8.51,2.23-12.76,3.07-8.51,1.67-17.02,2.76-25.53,3.13-4.26.18-8.51.08-12.77-.19-4.26-.29-8.51-.7-12.77-1.11-4.26-.41-8.51-.75-12.77-1.51-4.26-.72-8.52-1.79-12.78-2.8-4.26-1-8.52-1.88-12.77-2.3-4.26-.42-8.51-.52-12.77-.12-8.51.68-17.02,4.26-25.52,5.71-4.25.75-8.51.87-12.77.65-4.26-.19-8.51-.57-12.77-1.19-4.26-.63-8.52-1.48-12.78-2.65-4.26-1.2-8.52-2.59-12.78-4.76v-2.2Z"/><path class="cls-4" d="m234.53,278.11c-4.94-13.54-11.58-26.49-20.09-38.14-8.47-11.59-18.72-21.88-30.64-29.92-12.28-8.27-26.42-13.98-41.04-16.36-14.3-2.33-29.47-1.65-43.18,3.31-12.13,4.39-23.99,12.64-29.08,24.9-5.92,14.28.5,29.67,9.82,40.84,8.81,10.57,21.68,18.78,35.75,19.2,12.39.36,25.52-5.82,31.66-16.87s3.56-24.53-4.52-33.61c-1.97-2.22-4.32-4.15-6.89-5.63-2.87-1.65-6.39-3.15-9.76-2.67-3.74.54-6.04,3.95-7.88,6.94s-3.22,6.63-2.67,10.28c.45,2.99,2.2,5.87,5.01,7.15,1.74.79,3.27-1.79,1.51-2.59-2.64-1.2-3.83-4.05-3.66-6.84.2-3.46,2.33-6.78,4.43-9.43,1.11-1.4,2.41-2.54,4.28-2.61,1.68-.06,3.38.52,4.9,1.18,2.49,1.08,4.79,2.61,6.77,4.45,8.01,7.44,11.47,20.04,6.75,30.17-4.95,10.64-16.74,16.83-28.18,17.08-13.05.28-25.16-6.98-33.7-16.4-9.03-9.97-16.02-24.16-11.52-37.72,3.83-11.54,14.66-19.67,25.55-24.08,12.47-5.06,26.45-6.26,39.74-4.73s27.1,6.25,39,13.23c11.6,6.81,21.76,15.89,30.31,26.24s15.45,22.03,20.82,34.31c1.31,3,2.51,6.05,3.64,9.12.66,1.8,3.56,1.02,2.89-.8h0Z"/></svg>