<?xml version="1.0" encoding="UTF-8"?><svg id="Rain" xmlns="http://www.w3.org/2000/svg" xmlns:xlink="http://www.w3.org/1999/xlink" viewBox="0 0 350 350"><defs><style>.cls-1{fill:url(#New_Gradient_Swatch_3-8);}.cls-2{fill:url(#New_Gradient_Swatch_3-4);}.cls-3{fill:#e1e1ff;}.cls-4{fill:url(#New_Gradient_Swatch_3-2);}.cls-5{fill:url(#New_Gradient_Swatch_3);}.cls-6{fill:url(#New_Gradient_Swatch_3-3);}.cls-7{fill:url(#New_Gradient_Swatch_3-7);}.cls-8{fill:#d7faff;}.cls-9{fill:url(#New_Gradient_Swatch_3-5);}.cls-10{fill:url(#linear-gradient);}.cls-11{fill:url(#New_Gradient_Swatch_3-6);}</style><linearGradient id="linear-gradient" x1="178.9" y1="234.81" x2="178.9" y2="92.75" gradientUnits="userSpaceOnUse"><stop offset="0" stop-color="#7d6aff"/><stop offset="1" stop-color="#002dc8"/></linearGradient><linearGradient id="New_Gradient_Swatch_3" x1="371.39" y1="403.96" x2="452.15" y2="403.96" gradientTransform="translate(698.15 41.8) rotate(117.62) scale(.94 .84) skewX(-11)" gradientUnits="userSpaceOnUse"><stop offset="0" stop-color="#002dc8"/><stop offset=".15" stop-color="#3245dd"/><stop offset=".3" stop-color="#5a58ef"/><stop offset=".41" stop-color="#7264fa"/><stop offset=".48" stop-color="#7c69fe"/><stop offset=".55" stop-color="#8078f7" stop-opacity=".92"/><stop offset=".76" stop-color="#8ea6e5" stop-opacity=".69"/><stop offset=".92" stop-color="#97c2da" stop-opacity=".55"/><stop offset="1" stop-color="#9bcdd6" stop-opacity=".5"/></linearGradient><linearGradient id="New_Gradient_Swatch_3-2" x1="366.31" y1="416.11" x2="447.07" y2="416.11" gradientTransform="translate(670.14 36.69) rotate(117.09) scale(.94 .83) skewX(-11.9)" xlink:href="#New_Gradient_Swatch_3"/><linearGradient id="New_Gradient_Swatch_3-3" x1="195.48" y1="182.69" x2="291.42" y2="182.69" gradientTransform="translate(530.13 80.43) rotate(123.48)" xlink:href="#New_Gradient_Swatch_3"/><linearGradient id="New_Gradient_Swatch_3-4" x1="166.66" y1="145.94" x2="227.12" y2="145.94" gradientTransform="translate(427.24 62.23) rotate(123.48)" xlink:href="#New_Gradient_Swatch_3"/><linearGradient id="New_Gradient_Swatch_3-5" x1="876.34" y1="1352.89" x2="957.1" y2="1352.89" gradientTransform="translate(837.24 139.15) rotate(106.06) scale(.87 .5) skewX(-26.34)" xlink:href="#New_Gradient_Swatch_3"/><linearGradient id="New_Gradient_Swatch_3-6" x1="265.76" y1="447.14" x2="346.52" y2="447.14" gradientTransform="translate(550.4 174.3) rotate(117.09) scale(.94 .83) skewX(-11.9)" xlink:href="#New_Gradient_Swatch_3"/><linearGradient id="New_Gradient_Swatch_3-7" x1="43.69" y1="141.73" x2="139.64" y2="141.73" gradientTransform="translate(301.7 205.49) rotate(123.52) skewX(.07)" xlink:href="#New_Gradient_Swatch_3"/><linearGradient id="New_Gradient_Swatch_3-8" x1="1903.94" y1="-173.12" x2="1964.4" y2="-173.12" gradientTransform="translate(651.2 -643.69) rotate(130.33) scale(.52 .55) skewX(13.98)" xlink:href="#New_Gradient_Swatch_3"/></defs><path class="cls-10" d="m80.13,92.75c-7.7,0-13.95,6.25-13.95,13.95v41.4h.19l1.86,57c.29,8.92,8.74,15.81,17.33,13.4,2.59-.73,6.61,1.46,14.9,9.55,10.6,10.35,33.17,9.6,29.95-7.85-5.62-30.44-2.88-34.82,22.49-8.37,25.38,26.45,55.71,14.67,28.02-14.99-18.47-19.78,19.61-29.53,21.5-5.94,2.74,34.24,36.54,21.52,35.07,1.3-2.73-37.51,16.52-21.34,14.38-10.24-1.9,9.85,18.52,3.32,30.82-1.43,5.39-2.08,8.94-7.25,8.94-13.02v-60.82c0-7.7-6.25-13.95-13.95-13.95H80.13Z"/><rect class="cls-5" x="195.95" y="160.79" width="112.02" height="3.15" transform="translate(255.54 462.08) rotate(-123.48)"/><rect class="cls-4" x="173.47" y="144.74" width="109.52" height="3.15" transform="translate(232.11 417.38) rotate(-123.48)"/><rect class="cls-6" x="161.02" y="179.69" width="164.85" height="5.99" transform="translate(225.4 486.52) rotate(-123.48)"/><rect class="cls-2" x="143.84" y="144.78" width="106.11" height="2.3" transform="translate(183.8 390.67) rotate(-123.48)"/><rect class="cls-9" x="95.03" y="155.75" width="61.65" height="3.15" transform="translate(64.08 349.09) rotate(-123.48)"/><rect class="cls-11" x="76.61" y="181.36" width="109.52" height="3.15" transform="translate(51.27 393.44) rotate(-123.48)"/><rect class="cls-7" x="50.16" y="200.76" width="165.07" height="5.99" transform="translate(35.97 426.84) rotate(-123.48)"/><rect class="cls-1" x="61.11" y="160.78" width="64.17" height="1.09" transform="translate(10.06 328.05) rotate(-123.48)"/><path class="cls-3" d="m161.11,108.42c-5.25-4.68-12.8-7.61-21.18-7.61-5.07,0-9.82,1.07-13.96,2.95-5.53-8.91-15.4-14.84-26.66-14.84-7.66,0-14.67,2.75-20.12,7.31-3.82-1.91-8.25-3.01-12.97-3.01-12.8,0-23.45,8.04-25.75,18.67-7.07,3.33-12.59,9.42-15.18,16.87-1.21,3.49,1.41,7.13,5.1,7.13l152.69-1.03c4.55,0,7.64-4.71,5.75-8.85-2.63-5.76-7.24-10.43-12.97-13.13,0,0-5.72-4.26-14.76-4.46Z"/><path class="cls-3" d="m226.22,89.91c3.81-3.4,9.29-5.53,15.37-5.53,3.68,0,7.13.78,10.13,2.14,4.02-6.46,11.18-10.77,19.35-10.77,5.56,0,10.65,1.99,14.6,5.3,2.78-1.39,5.99-2.19,9.41-2.19,9.29,0,17.02,5.84,18.69,13.55,5.13,2.42,9.14,6.83,11.02,12.25.88,2.53-1.02,5.17-3.7,5.17l-110.81-.75c-3.3,0-5.55-3.41-4.18-6.42,1.91-4.18,5.26-7.57,9.41-9.53,0,0,4.15-3.09,10.71-3.24Z"/><path class="cls-8" d="m322.21,128.89c-6.01,4.6-15.08,2.06-20.83-1.61-3.26-2.08-6.17-4.67-9.25-7-3.42-2.59-6.96-5.02-10.61-7.28s-7.3-4.48-11.17-6.22c-3.29-1.48-6.83-2.43-10.45-1.99-2.71.33-6.02,1.47-7.05,4.29s1.1,5.23,3.1,6.81c2.96,2.34,6.36,3.25,9.83,4.51,1.7.62,3.9,1.63,3.84,3.76s-2.05,3.53-3.78,4.32c-3.72,1.68-8.16,1.74-12.16,1.5s-7.64-.99-11.37-1.94c-7.64-1.95-15.06-4.78-22.83-6.23-6.69-1.25-14.46-1.88-20.6,1.66-2.01,1.16-3.96,3.04-3.81,5.55.16,2.76,2.72,4.61,5,5.68,3.49,1.64,7.3,2.09,11.07,2.67s8.21,1.12,10.74,4.07c.92,1.07,1.68,2.66,1.03,4.06-.88,1.9-3.54,2.26-5.37,2.55-4.18.65-8.44.95-12.67,1.04-8.19.17-16.4-.59-24.41-2.3s-15.44-4.24-22.54-7.91-13.89-8.04-22.05-8.97c-6.39-.72-14.6.67-17.53,7.23s2.17,11.99,7.41,14.88c1.53.85,3.19,1.43,4.66,2.38.55.36,1.58.97,1.8,1.65.39,1.2-1.45,1.46-2.29,1.61-4.22.74-8.65.11-12.7-1.22-8.04-2.63-13.9-8.48-20.32-13.68-2.71-2.2-5.68-4.1-9.24-4.43-4.31-.4-8.66,1.42-12.71,2.63-4.45,1.34-8.9,2.67-13.35,4.01-4.11,1.23-8.21,2.62-12.42,3.45-3.86.75-7.9.98-11.6-.55-.89-.37-1.28,1.08-.4,1.45,7.44,3.08,15.99-.25,23.21-2.41,4.45-1.34,8.9-2.67,13.35-4.01s8.9-3.34,13.39-3.1c4.23.22,7.53,3,10.61,5.61s6.09,5.32,9.42,7.61c6.48,4.48,14.52,7.3,22.46,6.19,1.31-.18,2.89-.42,3.74-1.55.7-.93.46-2-.21-2.86-2.06-2.63-5.91-3.41-8.58-5.26-2.8-1.95-5.54-4.95-5.57-8.56s2.55-6.59,5.65-8.11c7.47-3.68,16.73-.91,23.69,2.58,3.67,1.84,7.19,3.98,10.89,5.77,3.43,1.65,6.97,3.06,10.58,4.25,15.3,5.05,32.18,6.5,48.12,4.03,2.75-.43,6.4-1.42,6.69-4.75.23-2.73-1.98-5.15-4.23-6.37-3.44-1.86-7.53-2.24-11.33-2.82s-7.86-1.23-10.79-3.71c-2.75-2.34-1.71-5.2,1.05-6.89,2.94-1.81,6.61-2.52,10.01-2.59,8.05-.15,15.86,2.2,23.48,4.51s14.94,4.54,22.75,4.69c3.69.07,7.63-.21,11.02-1.78,2.56-1.18,5.24-3.76,4.37-6.86-.92-3.29-5.09-4.02-7.85-4.94-3.09-1.03-7.75-3.09-8.86-6.49-1.3-3.99,4.68-5.28,7.4-5.31,4.26-.04,8.16,1.87,11.81,3.86,7.6,4.14,14.75,8.97,21.52,14.36,5.72,4.56,11.85,8.5,19.44,8.36,3-.06,6.13-.71,8.55-2.57.76-.58,0-1.88-.76-1.3h0Z"/></svg>