<?xml version="1.0" encoding="UTF-8"?><svg id="Scatter_Clouds" xmlns="http://www.w3.org/2000/svg" xmlns:xlink="http://www.w3.org/1999/xlink" viewBox="0 0 350 350"><defs><style>.cls-1{fill:url(#linear-gradient-2);}.cls-2{fill:url(#linear-gradient-6);}.cls-3{fill:#bed4ea;}.cls-4{fill:url(#linear-gradient-5);}.cls-5{fill:url(#linear-gradient-3);}.cls-6{fill:url(#linear-gradient);}.cls-7{fill:url(#linear-gradient-4);}</style><linearGradient id="linear-gradient" x1="166.27" y1="151.24" x2="166.27" y2="102.37" gradientUnits="userSpaceOnUse"><stop offset="0" stop-color="#6aa3aa" stop-opacity="0"/><stop offset=".04" stop-color="#72a7ae" stop-opacity=".07"/><stop offset=".18" stop-color="#91b8bc" stop-opacity=".31"/><stop offset=".33" stop-color="#abc6c9" stop-opacity=".52"/><stop offset=".47" stop-color="#c0d1d3" stop-opacity=".7"/><stop offset=".61" stop-color="#d0dadb" stop-opacity=".83"/><stop offset=".75" stop-color="#dce0e1" stop-opacity=".92"/><stop offset=".88" stop-color="#e3e4e4" stop-opacity=".98"/><stop offset="1" stop-color="#e6e6e6"/></linearGradient><linearGradient id="linear-gradient-2" x1="218.54" y1="173.86" x2="218.54" y2="125.59" xlink:href="#linear-gradient"/><linearGradient id="linear-gradient-3" x1="117.35" y1="247.63" x2="117.35" y2="199.37" xlink:href="#linear-gradient"/><linearGradient id="linear-gradient-4" x1="179.49" y1="177.3" x2="325" y2="177.3" gradientTransform="translate(504.49 354.59) rotate(-180)" gradientUnits="userSpaceOnUse"><stop offset="0" stop-color="#6aa3aa" stop-opacity="0"/><stop offset=".68" stop-color="#a7c0c9" stop-opacity=".69"/><stop offset="1" stop-color="#c3cdd8"/></linearGradient><linearGradient id="linear-gradient-5" x1="25" y1="159.64" x2="125.35" y2="159.64" gradientTransform="translate(150.35 319.28) rotate(-180)" gradientUnits="userSpaceOnUse"><stop offset="0" stop-color="#c3cdd8"/><stop offset=".32" stop-color="#a7c0c9" stop-opacity=".69"/><stop offset="1" stop-color="#6aa3aa" stop-opacity="0"/></linearGradient><linearGradient id="linear-gradient-6" x1="193.93" y1="192.25" x2="312.68" y2="192.25" gradientUnits="userSpaceOnUse"><stop offset="0" stop-color="#6aa3aa" stop-opacity="0"/><stop offset=".68" stop-color="#a7c0c9" stop-opacity=".69"/><stop offset="1" stop-color="#c3cdd8"/></linearGradient></defs><path class="cls-6" d="m277.27,151.24c4.68,0,7.85-4.83,5.91-9.09-2.7-5.92-7.44-10.72-13.32-13.49-2.16-10-12.18-17.56-24.22-17.56-4.44,0-8.6,1.03-12.2,2.83-5.12-4.29-11.72-6.87-18.93-6.87-11.16,0-20.88,6.2-25.89,15.35-5.39-4.81-13.15-7.82-21.77-7.82-5.21,0-10.09,1.1-14.34,3.03-5.69-9.15-15.82-15.25-27.39-15.25-7.87,0-15.08,2.82-20.67,7.51-3.93-1.97-8.47-3.09-13.32-3.09-13.15,0-24.09,8.26-26.45,19.19-7.27,3.42-12.94,9.68-15.6,17.34-1.24,3.58,1.44,7.32,5.24,7.32l222.95.61Z"/><path class="cls-1" d="m273.93,145.63c-5.39-4.81-13.15-7.82-21.77-7.82-5.21,0-10.09,1.1-14.34,3.03-5.69-9.15-15.82-15.25-27.39-15.25-7.87,0-15.08,2.82-20.67,7.51-3.93-1.97-8.47-3.09-13.32-3.09-13.15,0-24.09,8.26-26.45,19.19-7.27,3.42-12.94,9.68-15.6,17.34-1.24,3.58,1.44,7.32,5.24,7.32l156.88-1.06c4.68,0,7.85-4.83,5.91-9.09-2.7-5.92-7.44-10.72-13.32-13.49,0,0-5.88-4.38-15.17-4.59Z"/><path class="cls-5" d="m172.74,219.41c-5.39-4.81-13.15-7.82-21.77-7.82-5.21,0-10.09,1.1-14.34,3.03-5.69-9.15-15.82-15.25-27.39-15.25-7.87,0-15.08,2.82-20.67,7.51-3.93-1.97-8.47-3.09-13.32-3.09-13.15,0-24.09,8.26-26.45,19.19-7.27,3.42-12.94,9.68-15.6,17.34-1.24,3.58,1.44,7.32,5.24,7.32l156.88-1.06c4.68,0,7.85-4.83,5.91-9.09-2.7-5.92-7.44-10.72-13.32-13.49,0,0-5.88-4.38-15.17-4.59Z"/><rect class="cls-7" x="179.49" y="175.72" width="145.51" height="3.16" transform="translate(504.49 354.59) rotate(180)"/><rect class="cls-4" x="25" y="157.13" width="100.35" height="5.02" transform="translate(150.35 319.28) rotate(180)"/><rect class="cls-2" x="193.93" y="187.24" width="118.75" height="10.04"/><path class="cls-3" d="m260.95,232.52c2.18.7,5.18-.3,7.23-.99,3.26-1.09,6.55-2.75,8.9-5.32,2.79-3.05,3.32-6.71,2.49-10.67-.56-2.7-2.28-4.41-4.49-5.92-2.46-1.68-4.97-2.31-7.86-2.88-26.45-5.18-53.51-4.92-80.34-5.57-13.43-.32-26.87-.87-40.21-2.46-6.74-.8-13.44-1.89-20.07-3.33-3.26-.71-6.51-1.51-9.72-2.41-2.4-.67-4.79-1.44-6.85-2.89-1.94-1.37-3.36-3.47-2.92-5.93s2.45-4.04,4.33-5.31c1.98-1.34,4.23-2.34,6.04-3.91s3.36-3.73,3.97-6.07c.54-2.07.21-4.33-1.4-5.83-2.14-2-5.53-1.9-8.26-2.21-7.19-.82-14.39-1.64-21.58-2.46s-14.39-1.64-21.58-2.46c-6.48-.74-13.18-1.15-19.37-3.35-5.26-1.87-10.03-5.41-12.47-10.54s-1.72-10.9,2.28-14.77c1.71-1.65,3.86-2.59,6.25-2.43,1.45.1,1.44-2.16,0-2.25-5.03-.33-9.17,3.43-11.03,7.84-2.06,4.86-1.17,10.3,1.64,14.69,6.87,10.73,20.26,11.65,31.72,12.96,14.39,1.64,28.77,3.27,43.16,4.91,1.61.18,3.24.31,4.83.56,1.34.22,2.8.63,3.48,1.93,1.11,2.11-.43,4.81-1.77,6.42-3.09,3.74-8.35,4.78-11.18,8.88-2.85,4.14-.86,8.91,3,11.47,2.09,1.39,4.49,2.2,6.89,2.87,3.22.9,6.46,1.71,9.72,2.42,13.03,2.86,26.34,4.3,39.65,5.09,26.9,1.6,53.93.55,80.76,3.32,6.7.69,13.37,1.63,19.98,2.91,1.45.28,2.97.48,4.37.94,1.33.44,2.59,1.21,3.72,2.01.95.68,1.97,1.46,2.54,2.51.66,1.22.81,2.76.92,4.11.54,7.13-7.99,11-13.9,11.91-.46.07-.92.12-1.38.13-.54,0-.56.02-.88-.08-1.38-.44-1.97,1.73-.6,2.17h0Z"/></svg>