<?xml version="1.0" encoding="UTF-8"?><svg id="Shower_Rain" xmlns="http://www.w3.org/2000/svg" xmlns:xlink="http://www.w3.org/1999/xlink" viewBox="0 0 350 350"><defs><style>.cls-1{fill:url(#New_Gradient_Swatch_3-8);}.cls-2{fill:#a2aef2;}.cls-3{fill:url(#New_Gradient_Swatch_3-4);}.cls-4{fill:#e1e1ff;}.cls-5{fill:url(#New_Gradient_Swatch_3-2);}.cls-6{fill:url(#New_Gradient_Swatch_3);}.cls-7{fill:url(#New_Gradient_Swatch_3-3);}.cls-8{fill:url(#New_Gradient_Swatch_3-7);}.cls-9{fill:#d7faff;}.cls-10{fill:url(#New_Gradient_Swatch_3-5);}.cls-11{fill:url(#linear-gradient);}.cls-12{fill:url(#New_Gradient_Swatch_3-6);}</style><linearGradient id="linear-gradient" x1="-9017.63" y1="239.12" x2="-9017.63" y2="89.7" gradientTransform="translate(-8842.35) rotate(-180) scale(1 -1)" gradientUnits="userSpaceOnUse"><stop offset="0" stop-color="#7d6aff"/><stop offset="1" stop-color="#002dc8"/></linearGradient><linearGradient id="New_Gradient_Swatch_3" x1="-9384.22" y1="-443.2" x2="-9299.27" y2="-443.2" gradientTransform="translate(-4270.64 -7383.9) rotate(-117.62) scale(.94 -.84) skewX(-11)" gradientUnits="userSpaceOnUse"><stop offset="0" stop-color="#002dc8"/><stop offset=".15" stop-color="#3245dd"/><stop offset=".3" stop-color="#5a58ef"/><stop offset=".41" stop-color="#7264fa"/><stop offset=".48" stop-color="#7c69fe"/><stop offset=".55" stop-color="#8078f7" stop-opacity=".92"/><stop offset=".76" stop-color="#8ea6e5" stop-opacity=".69"/><stop offset=".92" stop-color="#97c2da" stop-opacity=".55"/><stop offset="1" stop-color="#9bcdd6" stop-opacity=".5"/></linearGradient><linearGradient id="New_Gradient_Swatch_3-2" x1="-9451.89" y1="-524.66" x2="-9366.94" y2="-524.66" gradientTransform="translate(-4229.74 -7412.29) rotate(-117.09) scale(.94 -.83) skewX(-11.9)" xlink:href="#New_Gradient_Swatch_3"/><linearGradient id="New_Gradient_Swatch_3-3" x1="-9000.2" y1="184.3" x2="-8899.28" y2="184.3" gradientTransform="translate(-4676.57 -7381.78) rotate(-123.48) scale(1 -1)" xlink:href="#New_Gradient_Swatch_3"/><linearGradient id="New_Gradient_Swatch_3-4" x1="-9030.51" y1="145.64" x2="-8966.91" y2="145.64" gradientTransform="translate(-4686.85 -7439.96) rotate(-123.48) scale(1 -1)" xlink:href="#New_Gradient_Swatch_3"/><linearGradient id="New_Gradient_Swatch_3-5" x1="-11062.72" y1="-2782.09" x2="-10977.77" y2="-2782.09" gradientTransform="translate(-3432.67 -7485.05) rotate(-106.06) scale(.87 -.5) skewX(-26.34)" xlink:href="#New_Gradient_Swatch_3"/><linearGradient id="New_Gradient_Swatch_3-6" x1="-9541.25" y1="-468.64" x2="-9456.3" y2="-468.64" gradientTransform="translate(-4142.7 -7461.22) rotate(-117.09) scale(.94 -.83) skewX(-11.9)" xlink:href="#New_Gradient_Swatch_3"/><linearGradient id="New_Gradient_Swatch_3-7" x1="-9606.03" y1="-533.28" x2="-9505.11" y2="-533.28" gradientTransform="translate(-4087.27 -7450.98) rotate(-116.45) scale(.93 -.81) skewX(-12.97)" xlink:href="#New_Gradient_Swatch_3"/><linearGradient id="New_Gradient_Swatch_3-8" x1="-14120.88" y1="1380.81" x2="-14057.28" y2="1380.81" gradientTransform="translate(-3750.83 -5705.88) rotate(-130.33) scale(.52 -.55) skewX(13.98)" xlink:href="#New_Gradient_Swatch_3"/></defs><path class="cls-11" d="m279.17,89.7c8.1,0,14.67,6.57,14.67,14.67v43.54h-.2s-1.95,59.96-1.95,59.96c-.31,9.38-9.2,16.63-18.23,14.1-2.73-.77-6.95,1.53-15.68,10.05-11.15,10.88-34.89,10.1-31.5-8.25,5.91-32.02,3.03-36.63-23.66-8.8-26.69,27.82-58.6,15.43-29.47-15.77,19.42-20.81-20.62-31.06-22.61-6.24-2.89,36.01-38.44,22.63-36.89,1.37,2.87-39.46-17.37-22.44-15.13-10.77,1.99,10.36-19.48,3.49-32.41-1.5-5.67-2.19-9.4-7.62-9.4-13.7v-20.44s0-5.99,0-5.99v-37.55c0-8.1,6.57-14.67,14.67-14.67h207.79Z"/><rect class="cls-6" x="39.52" y="161.27" width="117.83" height="3.31" transform="translate(-91.76 155.14) rotate(-56.52)"/><rect class="cls-5" x="65.8" y="144.38" width="115.2" height="3.31" transform="translate(-66.49 168.39) rotate(-56.52)"/><rect class="cls-7" x="20.69" y="181.15" width="173.4" height="6.3" transform="translate(-105.57 172.18) rotate(-56.52)"/><rect class="cls-3" x="100.55" y="144.43" width="111.61" height="2.42" transform="translate(-51.38 195.7) rotate(-56.52)"/><rect class="cls-10" x="191.8" y="169.66" width="64.85" height="3.31" transform="translate(-42.37 263.81) rotate(-56.52)"/><rect class="cls-12" x="154.83" y="200.89" width="115.2" height="3.31" transform="translate(-73.7 267.97) rotate(-56.52)"/><rect class="cls-8" x="146.75" y="221.34" width="130.4" height="6.3" transform="translate(-92.21 277.41) rotate(-56.52)"/><rect class="cls-1" x="219.7" y="188.65" width="67.5" height="1.14" transform="translate(-44.2 296.21) rotate(-56.52)"/><path class="cls-2" d="m293.85,167.79c0,1.9-.92,3.69-2.46,4.81-22.72,16.52-72.74,6.32-51.5-4.11,24.37-11.97-11.4-20.92-18.24-7.76-11.4,21.93-84.37,15.52-86.65,1.41-1.72-10.65,60.26-25.46,42.56-38.81-12.16-9.17-16.65,5.25-50.92-3.53-40.78-10.44-58.49,25.3-67.82,18.15-1.39-1.06-2.11-2.78-2.11-4.53v-37.81c0-3.26,2.65-5.91,5.91-5.91h225.33c3.26,0,5.91,2.65,5.91,5.91v72.18Z"/><path class="cls-9" d="m24.62,133.32c5.56,4.26,14.11,3.05,20.01.24,3.57-1.7,6.68-4.16,9.76-6.61,3.52-2.81,7.14-5.49,10.9-7.98s7.81-4.92,11.86-7.11c3.84-2.07,7.95-3.96,12.41-3.79,3.01.11,9.11,1.84,7.18,6.07-1.59,3.48-6.24,5.48-9.63,6.56-2.88.92-7.17,1.85-7.85,5.39-.64,3.33,2.36,5.83,5.09,6.99,7.22,3.07,16.2,1.7,23.58-.03,8.08-1.89,15.87-4.89,23.99-6.64,7.25-1.56,16.48-2.78,23.07,1.58,1.12.74,2.27,1.79,2.56,3.16.37,1.8-.87,3.32-2.23,4.32-3.25,2.4-7.52,3.03-11.41,3.62s-8.27,1.01-11.76,3.09c-2.25,1.34-4.4,3.87-4.04,6.66.46,3.56,4.58,4.41,7.5,4.83,4.2.61,8.44.95,12.69,1.06,8.58.22,17.19-.54,25.6-2.25s15.94-4.19,23.33-7.8c7.89-3.86,15.22-9.09,24.17-10.11,4.08-.47,8.54-.23,12.22,1.75,3.19,1.71,5.75,4.95,5.54,8.72s-3.24,6.93-6.26,8.93c-2.71,1.8-6.96,2.65-8.83,5.52-1.96,3,2.24,4.13,4.4,4.39,4.18.5,8.46-.06,12.46-1.3,8.22-2.56,14.48-8.17,20.93-13.61,3.3-2.78,6.82-5.56,11.35-5.59,2.34-.02,4.61.61,6.84,1.27,2.42.71,4.84,1.45,7.26,2.18,4.68,1.41,9.36,2.81,14.05,4.22,4.23,1.27,8.46,2.66,12.85,3.3,3.69.53,7.5.52,10.99-.93.88-.36.49-1.82-.4-1.45-4.06,1.68-8.51,1.35-12.72.48-4.45-.92-8.78-2.39-13.13-3.69-4.68-1.41-9.36-2.81-14.05-4.22-4.25-1.28-8.78-3.12-13.31-2.54-3.71.48-6.77,2.6-9.59,4.92-3.3,2.72-6.44,5.64-9.89,8.18-6.92,5.08-16.17,8.96-24.91,7.09-.86-.18-2.38-.5-1.99-1.67.24-.73,1.32-1.37,1.91-1.75,1.68-1.09,3.59-1.74,5.33-2.74,2.97-1.72,5.79-4.13,7.26-7.29,2.87-6.18-1.35-12.3-7.2-14.54-7.47-2.87-16.12-.81-23.11,2.42-3.99,1.84-7.74,4.14-11.64,6.14-3.72,1.9-7.58,3.51-11.53,4.86-8.03,2.74-16.4,4.45-24.85,5.22s-17.76.73-26.42-.74c-1.8-.31-4.28-.76-5.14-2.61-.75-1.61.24-3.43,1.35-4.6,2.84-2.98,7.72-3.5,11.58-4.08s7.92-1.11,11.51-2.92c2.33-1.18,4.85-3.18,4.85-6.04,0-2.63-2.2-4.54-4.33-5.69-2.97-1.6-6.44-2.36-9.79-2.53-8.18-.41-16.31,1.87-24.06,4.2-7.83,2.35-15.71,4.98-23.94,5.4-4.19.22-8.9.11-12.73-1.8-1.69-.84-3.52-2.31-3.58-4.38-.07-2.44,2.6-3.5,4.52-4.15,3.64-1.24,7.19-2.35,10.21-4.85,2.03-1.68,3.96-4.3,2.83-7.03-1.23-2.98-4.84-4.07-7.76-4.35-3.82-.37-7.55.75-10.98,2.35-8.1,3.77-15.79,8.9-22.87,14.31-6.49,4.96-12.66,10.67-21.24,11.19-3.48.21-7.18-.28-10.02-2.45-.77-.59-1.51.72-.76,1.3h0Z"/><path class="cls-4" d="m204.87,88.84c4.57-4.67,11.13-7.59,18.43-7.59,4.41,0,8.54,1.07,12.14,2.95,4.81-8.88,13.4-14.8,23.19-14.8,6.66,0,12.76,2.74,17.5,7.29,3.33-1.91,7.17-3,11.28-3,11.13,0,20.4,8.02,22.39,18.62,6.15,3.32,10.95,9.39,13.2,16.83,1.05,3.48-1.22,7.11-4.43,7.11l-132.81-1.03c-3.96,0-6.65-4.69-5-8.82,2.29-5.75,6.3-10.4,11.28-13.09,0,0,4.98-4.25,12.84-4.45Z"/></svg>