<?xml version="1.0" encoding="UTF-8"?><svg id="Snow" xmlns="http://www.w3.org/2000/svg" xmlns:xlink="http://www.w3.org/1999/xlink" viewBox="0 0 350 350"><defs><style>.cls-1{fill:url(#linear-gradient-2);}.cls-2{fill:#91c2db;}.cls-3{fill:url(#linear-gradient-51);}.cls-4{fill:url(#linear-gradient-17);}.cls-5{fill:url(#linear-gradient-43);}.cls-6{fill:url(#linear-gradient-15);}.cls-7{fill:url(#linear-gradient-58);}.cls-8{fill:url(#linear-gradient-69);}.cls-9{fill:url(#linear-gradient-18);}.cls-10{fill:url(#linear-gradient-56);}.cls-11{fill:url(#linear-gradient-40);}.cls-12{fill:url(#linear-gradient-52);}.cls-13{fill:url(#linear-gradient-28);}.cls-14{fill:url(#linear-gradient-14);}.cls-15{fill:url(#linear-gradient-36);}.cls-16{fill:url(#linear-gradient-20);}.cls-17{fill:url(#linear-gradient-6);}.cls-18{fill:url(#linear-gradient-53);}.cls-19{fill:#ebedf7;}.cls-20{fill:url(#linear-gradient-60);}.cls-21{fill:url(#linear-gradient-35);}.cls-22{fill:url(#linear-gradient-48);}.cls-23{fill:url(#linear-gradient-32);}.cls-24{fill:url(#linear-gradient-11);}.cls-25{fill:url(#linear-gradient-50);}.cls-26{fill:url(#linear-gradient-63);}.cls-27{fill:url(#linear-gradient-67);}.cls-28{fill:url(#linear-gradient-39);}.cls-29{fill:#f8feff;}.cls-30{fill:url(#linear-gradient-10);}.cls-31{fill:url(#linear-gradient-59);}.cls-32{fill:url(#linear-gradient-49);}.cls-33{fill:url(#linear-gradient-37);}.cls-34{fill:url(#linear-gradient-16);}.cls-35{fill:url(#linear-gradient-31);}.cls-36{fill:url(#linear-gradient-61);}.cls-37{fill:url(#linear-gradient-68);}.cls-38{fill:url(#linear-gradient-62);}.cls-39{fill:url(#linear-gradient-41);}.cls-40{fill:url(#linear-gradient-21);}.cls-41{fill:url(#linear-gradient-25);}.cls-42{fill:url(#linear-gradient-5);}.cls-43{fill:url(#linear-gradient-64);}.cls-44{fill:url(#linear-gradient-54);}.cls-45{fill:url(#linear-gradient-45);}.cls-46{fill:url(#linear-gradient-55);}.cls-47{fill:url(#linear-gradient-34);}.cls-48{fill:url(#linear-gradient-65);}.cls-49{fill:url(#linear-gradient-7);}.cls-50{fill:url(#linear-gradient-66);}.cls-51{fill:url(#linear-gradient-24);}.cls-52{fill:url(#linear-gradient-9);}.cls-53{fill:url(#linear-gradient-22);}.cls-54{fill:url(#linear-gradient-42);}.cls-55{fill:url(#linear-gradient-3);}.cls-56{fill:url(#linear-gradient);}.cls-57{fill:url(#linear-gradient-27);}.cls-58{fill:url(#linear-gradient-33);}.cls-59{fill:url(#linear-gradient-38);}.cls-60{fill:url(#linear-gradient-29);}.cls-61{fill:url(#linear-gradient-30);}.cls-62{fill:url(#linear-gradient-23);}.cls-63{fill:url(#linear-gradient-19);}.cls-64{fill:url(#linear-gradient-4);}.cls-65{fill:url(#linear-gradient-8);}.cls-66{fill:url(#linear-gradient-44);}.cls-67{fill:url(#linear-gradient-57);}.cls-68{fill:url(#linear-gradient-47);}.cls-69{fill:url(#linear-gradient-46);}.cls-70{fill:url(#linear-gradient-12);}.cls-71{fill:url(#linear-gradient-13);}.cls-72{fill:url(#linear-gradient-26);}</style><linearGradient id="linear-gradient" x1="151.48" y1="234.44" x2="151.48" y2="203.91" gradientUnits="userSpaceOnUse"><stop offset="0" stop-color="#d6e4e8"/><stop offset=".01" stop-color="#d4e3e7"/><stop offset=".44" stop-color="#afd1e0"/><stop offset=".78" stop-color="#99c6dc"/><stop offset="1" stop-color="#91c2db"/></linearGradient><linearGradient id="linear-gradient-2" y1="229.02" y2="209.23" xlink:href="#linear-gradient"/><linearGradient id="linear-gradient-3" x1="151.48" y1="224.68" x2="151.48" y2="213.48" xlink:href="#linear-gradient"/><linearGradient id="linear-gradient-4" x1="168.98" y1="219.23" x2="168.98" y2="188.7" xlink:href="#linear-gradient"/><linearGradient id="linear-gradient-5" x1="168.98" y1="213.81" x2="168.98" y2="194.01" xlink:href="#linear-gradient"/><linearGradient id="linear-gradient-6" x1="168.98" y1="209.47" x2="168.98" y2="198.27" xlink:href="#linear-gradient"/><linearGradient id="linear-gradient-7" x1="187.23" y1="249.65" x2="187.23" y2="224.7" xlink:href="#linear-gradient"/><linearGradient id="linear-gradient-8" x1="187.23" y1="245.22" x2="187.23" y2="229.05" xlink:href="#linear-gradient"/><linearGradient id="linear-gradient-9" x1="187.23" y1="241.68" x2="187.23" y2="232.52" xlink:href="#linear-gradient"/><linearGradient id="linear-gradient-10" x1="164.1" y1="268.67" x2="164.1" y2="219.77" xlink:href="#linear-gradient"/><linearGradient id="linear-gradient-11" x1="164.1" y1="259.98" x2="164.1" y2="228.28" xlink:href="#linear-gradient"/><linearGradient id="linear-gradient-12" x1="164.1" y1="253.03" x2="164.1" y2="235.09" xlink:href="#linear-gradient"/><linearGradient id="linear-gradient-13" x1="140.83" y1="249.65" x2="140.83" y2="227.49" xlink:href="#linear-gradient"/><linearGradient id="linear-gradient-14" x1="140.83" y1="245.72" x2="140.83" y2="231.35" xlink:href="#linear-gradient"/><linearGradient id="linear-gradient-15" x1="140.83" y1="242.57" x2="140.83" y2="234.44" xlink:href="#linear-gradient"/><linearGradient id="linear-gradient-16" x1="194.41" y1="224.37" x2="194.41" y2="181.13" xlink:href="#linear-gradient"/><linearGradient id="linear-gradient-17" x1="194.41" y1="216.69" x2="194.41" y2="188.66" xlink:href="#linear-gradient"/><linearGradient id="linear-gradient-18" x1="194.41" y1="210.55" x2="194.41" y2="194.68" xlink:href="#linear-gradient"/><linearGradient id="linear-gradient-19" x1="164.75" y1="186.34" x2="164.75" y2="143.1" xlink:href="#linear-gradient"/><linearGradient id="linear-gradient-20" x1="164.75" y1="178.66" x2="164.75" y2="150.63" xlink:href="#linear-gradient"/><linearGradient id="linear-gradient-21" x1="164.75" y1="172.51" x2="164.75" y2="156.65" xlink:href="#linear-gradient"/><linearGradient id="linear-gradient-22" x1="133.56" y1="226.65" x2="133.56" y2="183.41" xlink:href="#linear-gradient"/><linearGradient id="linear-gradient-23" x1="133.56" y1="218.97" x2="133.56" y2="190.94" xlink:href="#linear-gradient"/><linearGradient id="linear-gradient-24" x1="133.56" y1="212.83" x2="133.56" y2="196.96" xlink:href="#linear-gradient"/><linearGradient id="linear-gradient-25" x1="292.96" y1="181.96" x2="292.96" y2="151.43" xlink:href="#linear-gradient"/><linearGradient id="linear-gradient-26" x1="292.96" y1="176.54" x2="292.96" y2="156.74" xlink:href="#linear-gradient"/><linearGradient id="linear-gradient-27" x1="292.96" y1="172.2" x2="292.96" y2="161" xlink:href="#linear-gradient"/><linearGradient id="linear-gradient-28" x1="302.84" y1="197.17" x2="302.84" y2="172.22" xlink:href="#linear-gradient"/><linearGradient id="linear-gradient-29" x1="302.84" y1="192.74" x2="302.84" y2="176.56" xlink:href="#linear-gradient"/><linearGradient id="linear-gradient-30" x1="302.84" y1="189.19" x2="302.84" y2="180.04" xlink:href="#linear-gradient"/><linearGradient id="linear-gradient-31" x1="226.4" y1="217.71" x2="226.4" y2="205.31" xlink:href="#linear-gradient"/><linearGradient id="linear-gradient-32" x1="226.4" y1="215.5" x2="226.4" y2="207.47" xlink:href="#linear-gradient"/><linearGradient id="linear-gradient-33" x1="226.4" y1="213.74" x2="226.4" y2="209.19" xlink:href="#linear-gradient"/><linearGradient id="linear-gradient-34" x1="100.9" y1="204.78" x2="100.9" y2="192.38" xlink:href="#linear-gradient"/><linearGradient id="linear-gradient-35" x1="100.9" y1="202.57" x2="100.9" y2="194.54" xlink:href="#linear-gradient"/><linearGradient id="linear-gradient-36" x1="100.9" y1="200.81" x2="100.9" y2="196.26" xlink:href="#linear-gradient"/><linearGradient id="linear-gradient-37" x1="259.31" y1="200.75" x2="259.31" y2="171.85" xlink:href="#linear-gradient"/><linearGradient id="linear-gradient-38" x1="259.31" y1="195.62" x2="259.31" y2="176.88" xlink:href="#linear-gradient"/><linearGradient id="linear-gradient-39" x1="259.31" y1="191.51" x2="259.31" y2="180.9" xlink:href="#linear-gradient"/><linearGradient id="linear-gradient-40" x1="252.64" y1="168.27" x2="252.64" y2="146.11" xlink:href="#linear-gradient"/><linearGradient id="linear-gradient-41" x1="252.64" y1="164.33" x2="252.64" y2="149.96" xlink:href="#linear-gradient"/><linearGradient id="linear-gradient-42" x1="252.64" y1="161.18" x2="252.64" y2="153.05" xlink:href="#linear-gradient"/><linearGradient id="linear-gradient-43" x1="230.92" y1="191.66" x2="230.92" y2="148.43" xlink:href="#linear-gradient"/><linearGradient id="linear-gradient-44" x1="230.92" y1="183.98" x2="230.92" y2="155.95" xlink:href="#linear-gradient"/><linearGradient id="linear-gradient-45" x1="230.92" y1="177.84" x2="230.92" y2="161.97" xlink:href="#linear-gradient"/><linearGradient id="linear-gradient-46" x1="62.49" y1="162.94" x2="62.49" y2="132.42" xlink:href="#linear-gradient"/><linearGradient id="linear-gradient-47" x1="62.49" y1="157.52" x2="62.49" y2="137.73" xlink:href="#linear-gradient"/><linearGradient id="linear-gradient-48" x1="62.49" y1="153.18" x2="62.49" y2="141.98" xlink:href="#linear-gradient"/><linearGradient id="linear-gradient-49" x1="98.24" y1="178.15" x2="98.24" y2="153.21" xlink:href="#linear-gradient"/><linearGradient id="linear-gradient-50" x1="98.24" y1="173.72" x2="98.24" y2="157.55" xlink:href="#linear-gradient"/><linearGradient id="linear-gradient-51" x1="98.24" y1="170.18" x2="98.24" y2="161.02" xlink:href="#linear-gradient"/><linearGradient id="linear-gradient-52" x1="119.87" y1="142.94" x2="119.87" y2="130.39" xlink:href="#linear-gradient"/><linearGradient id="linear-gradient-53" x1="119.87" y1="140.71" x2="119.87" y2="132.57" xlink:href="#linear-gradient"/><linearGradient id="linear-gradient-54" x1="119.87" y1="138.93" x2="119.87" y2="134.32" xlink:href="#linear-gradient"/><linearGradient id="linear-gradient-55" x1="75.11" y1="197.17" x2="75.11" y2="148.27" xlink:href="#linear-gradient"/><linearGradient id="linear-gradient-56" x1="75.11" y1="188.48" x2="75.11" y2="156.78" xlink:href="#linear-gradient"/><linearGradient id="linear-gradient-57" x1="75.11" y1="181.54" x2="75.11" y2="163.59" xlink:href="#linear-gradient"/><linearGradient id="linear-gradient-58" x1="51.84" y1="178.15" x2="51.84" y2="155.99" xlink:href="#linear-gradient"/><linearGradient id="linear-gradient-59" x1="51.84" y1="174.22" x2="51.84" y2="159.85" xlink:href="#linear-gradient"/><linearGradient id="linear-gradient-60" x1="51.84" y1="171.07" x2="51.84" y2="162.94" xlink:href="#linear-gradient"/><linearGradient id="linear-gradient-61" x1="84.55" y1="142.4" x2="84.55" y2="120.25" xlink:href="#linear-gradient"/><linearGradient id="linear-gradient-62" x1="84.55" y1="138.47" x2="84.55" y2="124.1" xlink:href="#linear-gradient"/><linearGradient id="linear-gradient-63" x1="84.55" y1="135.32" x2="84.55" y2="127.19" xlink:href="#linear-gradient"/><linearGradient id="linear-gradient-64" x1="62.49" y1="131" x2="62.49" y2="108.84" xlink:href="#linear-gradient"/><linearGradient id="linear-gradient-65" x1="62.49" y1="127.06" x2="62.49" y2="112.69" xlink:href="#linear-gradient"/><linearGradient id="linear-gradient-66" x1="62.49" y1="123.91" x2="62.49" y2="115.78" xlink:href="#linear-gradient"/><linearGradient id="linear-gradient-67" x1="44.57" y1="155.15" x2="44.57" y2="111.92" xlink:href="#linear-gradient"/><linearGradient id="linear-gradient-68" x1="44.57" y1="147.47" x2="44.57" y2="119.44" xlink:href="#linear-gradient"/><linearGradient id="linear-gradient-69" x1="44.57" y1="141.33" x2="44.57" y2="125.46" xlink:href="#linear-gradient"/></defs><path class="cls-2" d="m317.25,87.54c0,1.32-.66,2.54-1.76,3.27-5.04,3.34-19.67,14.15-27.15,31.6-9.13,21.3-2.56,38.16-41.83,57.05-39.27,18.88-49.91,4.81-79.86-3.8-29.95-8.61-23.12,39.1-53.24,41.83-25.1,2.28-46.4-48.68-59.03-54.36-10.92-4.91-20.8-19.81-23.28-23.77-.39-.62-.6-1.34-.6-2.08v-49.73c0-2.17,1.76-3.92,3.92-3.92h278.91c2.17,0,3.92,1.76,3.92,3.92h0Z"/><g><g><polygon class="cls-56" points="143.16 218.98 151.48 203.91 159.81 218.98 151.48 234.44 143.16 218.98"/><polygon class="cls-1" points="151.48 209.23 156.88 218.99 151.48 229.02 146.08 218.99 151.48 209.23"/><polygon class="cls-55" points="148.43 219.01 151.48 213.48 154.54 219.01 151.48 224.68 148.43 219.01"/></g><g><polygon class="cls-64" points="160.65 203.77 168.98 188.7 177.3 203.77 168.98 219.23 160.65 203.77"/><polygon class="cls-42" points="168.98 194.01 174.37 203.78 168.98 213.81 163.58 203.78 168.98 194.01"/><polygon class="cls-17" points="165.92 203.79 168.98 198.27 172.03 203.79 168.98 209.47 165.92 203.79"/></g><g><polygon class="cls-49" points="180.43 237.02 187.23 224.7 194.03 237.02 187.23 249.65 180.43 237.02"/><polygon class="cls-65" points="187.23 229.05 191.64 237.03 187.23 245.22 182.82 237.03 187.23 229.05"/><polygon class="cls-52" points="184.73 237.04 187.23 232.52 189.73 237.04 187.23 241.68 184.73 237.04"/></g><g><polygon class="cls-30" points="150.76 243.9 164.1 219.77 177.44 243.9 164.1 268.67 150.76 243.9"/><polygon class="cls-24" points="164.1 228.28 172.75 243.92 164.1 259.98 155.45 243.92 164.1 228.28"/><polygon class="cls-70" points="159.2 243.94 164.1 235.09 168.99 243.94 164.1 253.03 159.2 243.94"/></g><g><polygon class="cls-71" points="134.79 238.43 140.83 227.49 146.88 238.43 140.83 249.65 134.79 238.43"/><polygon class="cls-14" points="140.83 231.35 144.75 238.44 140.83 245.72 136.91 238.44 140.83 231.35"/><polygon class="cls-6" points="138.62 238.45 140.83 234.44 143.05 238.45 140.83 242.57 138.62 238.45"/></g><g><polygon class="cls-34" points="182.62 202.47 194.41 181.13 206.2 202.47 194.41 224.37 182.62 202.47"/><polygon class="cls-4" points="194.41 188.66 202.06 202.49 194.41 216.69 186.77 202.49 194.41 188.66"/><polygon class="cls-9" points="190.09 202.51 194.41 194.68 198.74 202.51 194.41 210.55 190.09 202.51"/></g><g><polygon class="cls-63" points="152.96 164.44 164.75 143.1 176.54 164.44 164.75 186.34 152.96 164.44"/><polygon class="cls-16" points="164.75 150.63 172.39 164.46 164.75 178.66 157.1 164.46 164.75 150.63"/><polygon class="cls-40" points="160.42 164.48 164.75 156.65 169.08 164.48 164.75 172.51 160.42 164.48"/></g><g><polygon class="cls-53" points="121.77 204.75 133.56 183.41 145.36 204.75 133.56 226.65 121.77 204.75"/><polygon class="cls-62" points="133.56 190.94 141.21 204.77 133.56 218.97 125.92 204.77 133.56 190.94"/><polygon class="cls-51" points="129.24 204.79 133.56 196.96 137.89 204.79 133.56 212.83 129.24 204.79"/></g><g><polygon class="cls-41" points="284.63 166.5 292.96 151.43 301.28 166.5 292.96 181.96 284.63 166.5"/><polygon class="cls-72" points="292.96 156.74 298.35 166.51 292.96 176.54 287.56 166.51 292.96 156.74"/><polygon class="cls-57" points="289.9 166.52 292.96 161 296.01 166.52 292.96 172.2 289.9 166.52"/></g><g><polygon class="cls-13" points="296.04 184.53 302.84 172.22 309.65 184.53 302.84 197.17 296.04 184.53"/><polygon class="cls-60" points="302.84 176.56 307.26 184.55 302.84 192.74 298.43 184.55 302.84 176.56"/><polygon class="cls-61" points="300.35 184.56 302.84 180.04 305.34 184.56 302.84 189.19 300.35 184.56"/></g><g><polygon class="cls-35" points="223.02 211.43 226.4 205.31 229.78 211.43 226.4 217.71 223.02 211.43"/><polygon class="cls-23" points="226.4 207.47 228.59 211.43 226.4 215.5 224.21 211.43 226.4 207.47"/><polygon class="cls-58" points="225.16 211.44 226.4 209.19 227.64 211.44 226.4 213.74 225.16 211.44"/></g><g><polygon class="cls-47" points="97.52 198.5 100.9 192.38 104.28 198.5 100.9 204.78 97.52 198.5"/><polygon class="cls-21" points="100.9 194.54 103.09 198.5 100.9 202.57 98.71 198.5 100.9 194.54"/><polygon class="cls-15" points="99.66 198.51 100.9 196.26 102.14 198.51 100.9 200.81 99.66 198.51"/></g><g><polygon class="cls-33" points="251.42 186.11 259.31 171.85 267.19 186.11 259.31 200.75 251.42 186.11"/><polygon class="cls-59" points="259.31 176.88 264.42 186.13 259.31 195.62 254.2 186.13 259.31 176.88"/><polygon class="cls-28" points="256.41 186.14 259.31 180.9 262.2 186.14 259.31 191.51 256.41 186.14"/></g><g><polygon class="cls-11" points="246.6 157.04 252.64 146.11 258.69 157.04 252.64 168.27 246.6 157.04"/><polygon class="cls-39" points="252.64 149.96 256.56 157.05 252.64 164.33 248.73 157.05 252.64 149.96"/><polygon class="cls-54" points="250.43 157.06 252.64 153.05 254.86 157.06 252.64 161.18 250.43 157.06"/></g><g><polygon class="cls-5" points="219.13 169.76 230.92 148.43 242.71 169.76 230.92 191.66 219.13 169.76"/><polygon class="cls-66" points="230.92 155.95 238.57 169.78 230.92 183.98 223.28 169.78 230.92 155.95"/><polygon class="cls-45" points="226.6 169.8 230.92 161.97 235.25 169.8 230.92 177.84 226.6 169.8"/></g><g><polygon class="cls-69" points="54.16 147.48 62.49 132.42 70.81 147.48 62.49 162.94 54.16 147.48"/><polygon class="cls-68" points="62.49 137.73 67.89 147.5 62.49 157.52 57.09 147.5 62.49 137.73"/><polygon class="cls-22" points="59.43 147.51 62.49 141.98 65.54 147.51 62.49 153.18 59.43 147.51"/></g><g><polygon class="cls-32" points="91.43 165.52 98.24 153.21 105.04 165.52 98.24 178.15 91.43 165.52"/><polygon class="cls-25" points="98.24 157.55 102.65 165.53 98.24 173.72 93.83 165.53 98.24 157.55"/><polygon class="cls-3" points="95.74 165.54 98.24 161.02 100.74 165.54 98.24 170.18 95.74 165.54"/></g><g><polygon class="cls-12" points="116.45 136.58 119.87 130.39 123.3 136.58 119.87 142.94 116.45 136.58"/><polygon class="cls-18" points="119.87 132.57 122.09 136.59 119.87 140.71 117.65 136.59 119.87 132.57"/><polygon class="cls-44" points="118.62 136.6 119.87 134.32 121.13 136.6 119.87 138.93 118.62 136.6"/></g><g><polygon class="cls-46" points="61.77 172.4 75.11 148.27 88.44 172.4 75.11 197.17 61.77 172.4"/><polygon class="cls-10" points="75.11 156.78 83.75 172.43 75.11 188.48 66.46 172.43 75.11 156.78"/><polygon class="cls-67" points="70.21 172.45 75.11 163.59 80 172.45 75.11 181.54 70.21 172.45"/></g><g><polygon class="cls-7" points="45.8 166.93 51.84 155.99 57.88 166.93 51.84 178.15 45.8 166.93"/><polygon class="cls-31" points="51.84 159.85 55.76 166.94 51.84 174.22 47.92 166.94 51.84 159.85"/><polygon class="cls-20" points="49.62 166.95 51.84 162.94 54.06 166.95 51.84 171.07 49.62 166.95"/></g><g><polygon class="cls-36" points="78.5 131.18 84.55 120.25 90.59 131.18 84.55 142.4 78.5 131.18"/><polygon class="cls-38" points="84.55 124.1 88.47 131.19 84.55 138.47 80.63 131.19 84.55 124.1"/><polygon class="cls-26" points="82.33 131.2 84.55 127.19 86.77 131.2 84.55 135.32 82.33 131.2"/></g><g><polygon class="cls-43" points="56.45 119.77 62.49 108.84 68.53 119.77 62.49 131 56.45 119.77"/><polygon class="cls-48" points="62.49 112.69 66.41 119.78 62.49 127.06 58.57 119.78 62.49 112.69"/><polygon class="cls-50" points="60.27 119.79 62.49 115.78 64.71 119.79 62.49 123.91 60.27 119.79"/></g><g><polygon class="cls-27" points="32.78 133.25 44.57 111.92 56.36 133.25 44.57 155.15 32.78 133.25"/><polygon class="cls-37" points="44.57 119.44 52.22 133.27 44.57 147.47 36.93 133.27 44.57 119.44"/><polygon class="cls-8" points="40.25 133.29 44.57 125.46 48.9 133.29 44.57 141.33 40.25 133.29"/></g></g><g><path class="cls-19" d="m258.5,81.33h31.53c8.94,4.7,14.93,13.27,14.93,23.07,0,14.86-13.74,26.9-30.69,26.9-16.95,0-30.69-12.04-30.69-26.9,0-9.8,5.99-18.37,14.93-23.07Z"/><path class="cls-19" d="m267.38,81.33c3.1,5.38,4.88,11.62,4.88,18.27,0,20.29-16.45,36.73-36.73,36.73-20.29,0-36.73-16.45-36.73-36.73,0-6.66,1.78-12.89,4.88-18.27h63.71Z"/><path class="cls-19" d="m208.05,82.09c3.1,4.39,4.88,9.48,4.88,14.91,0,16.55-16.45,29.97-36.73,29.97-20.29,0-36.73-13.42-36.73-29.97,0-5.43,1.78-10.52,4.88-14.91h63.71Z"/><path class="cls-19" d="m323.95,81.33c-1.45,17.56-16.15,31.36-34.08,31.36s-32.63-13.8-34.08-31.36h68.17Z"/><path class="cls-19" d="m285.45,81.33c-3.31,13.38-15.39,23.3-29.8,23.3-14.4,0-26.49-9.92-29.8-23.3h59.59Z"/><path class="cls-19" d="m99.15,82.09h-34.44c-9.76,5.13-16.31,14.49-16.31,25.2,0,16.23,15.01,29.38,33.53,29.38s33.53-13.16,33.53-29.38c0-10.71-6.54-20.07-16.31-25.2Z"/><path class="cls-19" d="m89.45,82.09c-3.38,5.88-5.33,12.69-5.33,19.96,0,22.16,17.96,40.12,40.12,40.12s40.12-17.96,40.12-40.12c0-7.27-1.95-14.08-5.33-19.96h-69.59Z"/><path class="cls-19" d="m27.66,82.09c1.59,19.18,17.64,34.25,37.23,34.25s35.64-15.07,37.23-34.25H27.66Z"/><path class="cls-19" d="m71.24,82.09c3.61,14.62,16.81,25.46,32.55,25.46s28.93-10.84,32.55-25.46h-65.09Z"/></g><path class="cls-29" d="m26.08,122.02c2.78-7.86,10.07-13.56,18.13-15.22s16.82,1.71,22.13,8.39,7.62,16.41,2.96,23.77c-2.11,3.34-6.27,6.39-10.26,4.18-3.71-2.05-4.69-7.09-2.93-10.73,2.15-4.45,6.96-6.79,11.67-7.38,5.5-.7,11.22.35,16.57,1.59,10.84,2.51,21.24,6.8,32.28,8.49,5.28.81,10.63,1.05,15.93.25,4.87-.73,10.21-2.32,13.84-5.81s4.91-8.45,5.76-13.15c.91-5.06,1.17-10.52-1.08-15.28-1.81-3.82-5.44-7.06-9.7-7.68-3.91-.57-7.53,1.34-9.69,4.57s-2.61,7.4-.59,10.68,7.09,5.31,9.96,1.64c1.16-1.48,1.45-3.39.54-5.06-.7-1.27-2.64-.14-1.94,1.14,1.03,1.87-1.15,3.91-3,3.71-2.23-.24-3.89-2.4-4.4-4.45-.9-3.61,1.26-7.67,4.5-9.34,4.02-2.08,8.62.37,11.07,3.7,3.22,4.37,3.13,10.2,2.25,15.32-.83,4.85-2.12,10.23-6.19,13.42s-9.88,4.39-14.96,4.74c-11.08.75-21.8-2.67-32.27-5.83-5.28-1.6-10.58-3.15-16.02-4.12s-10.64-1.53-15.8-.25c-4.28,1.06-8.38,3.68-10.49,7.65-1.9,3.58-1.8,8.01.58,11.36s6.26,4.66,9.99,3.28,6.49-4.98,7.92-8.68c2.98-7.74.17-16.93-4.78-23.19-5.13-6.48-13.14-10.32-21.45-9.55s-15.64,5.2-20.09,11.95c-1.09,1.65-1.94,3.43-2.6,5.29-.48,1.37,1.69,1.96,2.17.6h0Z"/><path class="cls-29" d="m325.3,134.62c-9.95-3.13-20.48-2.66-30.66-4.51-7.67-1.4-15.85-4.59-20.76-10.94-2.4-3.1-4.18-7.27-3.44-11.26.85-4.56,5.46-6.52,9.69-5.31,3.86,1.1,6.89,4.49,8.03,8.27,1.25,4.15.13,8.67-2.09,12.28-5.2,8.46-15.67,11.47-24.95,12.65-5.27.67-10.63.73-15.92.19s-10.55-1.76-15.77-2.95c-9.61-2.18-20.02-4.61-29.75-1.72-7.66,2.28-14.73,8.6-15.36,16.96-.59,7.8,5.7,15.54,13.92,13.9,3.33-.66,6.46-3,7.4-6.36s-.31-7-2.83-9.19c-1.27-1.1-2.75-1.7-4.41-1.85-1.44-.13-1.43,2.13,0,2.25,3.47.3,5.7,4.2,5.23,7.45-.54,3.72-4.45,5.76-7.92,5.68-4.05-.09-7.23-3.14-8.5-6.84-1.34-3.9-.57-8.07,1.6-11.51,5.21-8.25,15.45-10.1,24.49-9.37,10.32.83,20.19,4.39,30.45,5.64s21.06.55,30.58-3.13c8.12-3.14,15.44-9.56,16.48-18.65.89-7.71-4.75-16.07-12.94-16.31-4.06-.12-7.86,2.07-9.24,5.97s-.35,7.97,1.43,11.4c3.64,7.03,11.02,11.28,18.36,13.55,9.35,2.89,19.3,2.5,28.88,4.12,2.5.43,4.98,1,7.4,1.76,1.38.44,1.98-1.74.6-2.17h0Z"/></svg>