<?xml version="1.0" encoding="UTF-8"?><svg id="Sun" xmlns="http://www.w3.org/2000/svg" xmlns:xlink="http://www.w3.org/1999/xlink" viewBox="0 0 350 350"><defs><style>.cls-1{fill:url(#linear-gradient-2);}.cls-2{fill:#ffff9f;}.cls-3{fill:#fdbf30;}.cls-4{fill:url(#New_Gradient_Swatch_1);}.cls-5{fill:url(#linear-gradient-3);}.cls-6{fill:url(#linear-gradient);}</style><linearGradient id="linear-gradient" x1="51.63" y1="155.51" x2="217.09" y2="155.51" gradientUnits="userSpaceOnUse"><stop offset="0" stop-color="#ffff9f"/><stop offset="1" stop-color="#fdbf30"/></linearGradient><linearGradient id="linear-gradient-2" x1="25" y1="176.9" x2="190.46" y2="176.9" gradientUnits="userSpaceOnUse"><stop offset="0" stop-color="#ffff9f"/><stop offset=".3" stop-color="#fee674"/><stop offset=".6" stop-color="#fdd14f"/><stop offset=".84" stop-color="#fdc338"/><stop offset="1" stop-color="#fdbf30"/></linearGradient><linearGradient id="New_Gradient_Swatch_1" x1="185.71" y1="186.89" x2="299.82" y2="186.89" gradientUnits="userSpaceOnUse"><stop offset="0" stop-color="#fdbf30"/><stop offset="1" stop-color="#ffff9f"/></linearGradient><linearGradient id="linear-gradient-3" x1="71.6" y1="210.66" x2="206.63" y2="210.66" gradientTransform="translate(278.22 421.32) rotate(-180)" gradientUnits="userSpaceOnUse"><stop offset="0" stop-color="#ffff9f"/><stop offset="1" stop-color="#fdbf30"/></linearGradient></defs><circle class="cls-3" cx="181.9" cy="175" r="96.04"/><rect class="cls-6" x="51.63" y="152.18" width="165.46" height="6.66"/><rect class="cls-1" x="25" y="170.25" width="165.46" height="13.31"/><rect class="cls-4" x="185.71" y="180.71" width="114.11" height="12.36"/><rect class="cls-5" x="71.6" y="202.58" width="135.03" height="16.17" transform="translate(278.22 421.32) rotate(180)"/><path class="cls-2" d="m77.3,268.5c4.78-6.74,12.53-10.47,20.44-12.12,9.57-2,19.41-.79,28.96.62,17.58,2.59,38.44,5.88,53.04-7.03,5.85-5.17,10.09-13.23,17.76-16,4.77-1.72,10.02-1.2,14.99-1.13s10.35,0,15.51-.24c19.69-.92,39.56-4.42,57.4-13.1,15.21-7.39,28.92-18.57,37.81-33.08,1.1-1.8,2.12-3.65,3.06-5.53.86-1.72-1.73-3.24-2.59-1.51-7.68,15.35-20.71,27.29-35.68,35.41-17.25,9.36-36.87,13.37-56.31,14.61-5.09.32-10.19.46-15.28.47s-10.29-.48-15.35.2c-4.36.59-8.12,2.43-11.44,5.27-3.11,2.66-5.65,5.89-8.4,8.89s-5.93,5.79-9.68,7.74-8.01,3.17-12.24,3.84c-9.64,1.53-19.4.15-28.96-1.27-9.75-1.45-19.66-3.02-29.52-1.7-8.08,1.08-16.16,3.97-22.21,9.6-1.47,1.37-2.77,2.91-3.94,4.56s1.48,3.08,2.59,1.51h0Z"/></svg>