<?xml version="1.0" encoding="UTF-8"?><svg id="Thunderstorm" xmlns="http://www.w3.org/2000/svg" xmlns:xlink="http://www.w3.org/1999/xlink" viewBox="0 0 350 350"><defs><style>.cls-1{fill:url(#linear-gradient-2);}.cls-2{fill:#f2e7ee;}.cls-3{fill:#4b0f59;}.cls-4{fill:url(#linear-gradient-6);}.cls-5{fill:url(#linear-gradient-11);}.cls-6{fill:url(#linear-gradient-10);}.cls-7{fill:url(#linear-gradient-5);}.cls-8{fill:url(#linear-gradient-7);}.cls-9{fill:url(#linear-gradient-9);}.cls-10{fill:url(#linear-gradient-3);}.cls-11{fill:url(#linear-gradient);}.cls-12{fill:#d1b8c6;}.cls-13{fill:url(#linear-gradient-4);}.cls-14{fill:url(#linear-gradient-8);}.cls-15{fill:url(#linear-gradient-12);}</style><linearGradient id="linear-gradient" x1="451.32" y1="581.8" x2="436.51" y2="437.68" gradientTransform="translate(754.8 89.49) rotate(117.62) scale(.94 .84) skewX(-11)" gradientUnits="userSpaceOnUse"><stop offset="0" stop-color="#efd3e2" stop-opacity=".5"/><stop offset=".08" stop-color="#e2c7e5" stop-opacity=".56"/><stop offset=".25" stop-color="#c0a7ed" stop-opacity=".7"/><stop offset=".47" stop-color="#8a76fa" stop-opacity=".94"/><stop offset=".52" stop-color="#7c69fe"/><stop offset="1" stop-color="#4b0f59"/></linearGradient><linearGradient id="linear-gradient-2" x1="758.94" y1="1365.47" x2="744.14" y2="1221.36" gradientTransform="translate(909.48 227.99) rotate(109.68) scale(.91 .63) skewX(-22.54)" xlink:href="#linear-gradient"/><linearGradient id="linear-gradient-3" x1="449.45" y1="600.79" x2="433.25" y2="456.17" gradientTransform="translate(726.91 83.65) rotate(117.09) scale(.94 .83) skewX(-11.9)" xlink:href="#linear-gradient"/><linearGradient id="linear-gradient-4" x1="215.1" y1="282.03" x2="215.1" y2="121.35" gradientTransform="translate(501.98 133.57) rotate(123.48)" gradientUnits="userSpaceOnUse"><stop offset="0" stop-color="#efd3e2" stop-opacity=".5"/><stop offset=".08" stop-color="#e2c7e5" stop-opacity=".56"/><stop offset=".25" stop-color="#c0a7ed" stop-opacity=".7"/><stop offset=".47" stop-color="#8a76fa" stop-opacity=".94"/><stop offset=".52" stop-color="#7c69fe"/><stop offset="1" stop-color="#4b0f59"/></linearGradient><linearGradient id="linear-gradient-5" x1="1873.15" y1="2703.18" x2="1873.15" y2="2542.49" gradientTransform="translate(1432.06 42.12) rotate(103.73) scale(.86 .43) skewX(-28.33)" xlink:href="#linear-gradient"/><linearGradient id="linear-gradient-6" x1="154.53" y1="210.98" x2="154.53" y2="108.53" gradientTransform="translate(373.03 119) rotate(123.48)" xlink:href="#linear-gradient"/><linearGradient id="linear-gradient-7" x1="1221.38" y1="1828.69" x2="1174.59" y2="1679.55" gradientTransform="translate(1051.95 104.2) rotate(106.06) scale(.87 .5) skewX(-26.34)" xlink:href="#linear-gradient"/><linearGradient id="linear-gradient-8" x1="387.97" y1="604.2" x2="371.77" y2="459.58" gradientTransform="translate(645.29 146.09) rotate(117.09) scale(.94 .83) skewX(-11.9)" xlink:href="#linear-gradient"/><linearGradient id="linear-gradient-9" x1="419.4" y1="683.89" x2="398.39" y2="513.69" gradientTransform="translate(685.89 182.61) rotate(116.45) scale(.93 .81) skewX(-12.97)" xlink:href="#linear-gradient"/><linearGradient id="linear-gradient-10" x1="2659.81" y1="-297.98" x2="2671.02" y2="-391.32" gradientTransform="translate(811.1 -981.92) rotate(130.33) scale(.52 .55) skewX(13.98)" xlink:href="#linear-gradient"/><linearGradient id="linear-gradient-11" x1="2987.07" y1="-363.29" x2="2998.28" y2="-456.63" gradientTransform="translate(1050.83 -1144.21) rotate(130.33) scale(.52 .55) skewX(13.98)" xlink:href="#linear-gradient"/><linearGradient id="linear-gradient-12" x1="-148.16" y1="1780.19" x2="-187.3" y2="1668.79" gradientTransform="translate(1094.61 1885.79) rotate(104.12) scale(1.37 .7) skewX(-28.02)" xlink:href="#linear-gradient"/></defs><path class="cls-3" d="m276.88,80.03c10.63,0,19.24,8.62,19.24,19.24v68.84s-4.18,84.29-4.18,84.29l-13.69-42.15-29.97,71.87,9.29-44.59-9.29,9.18v-8.32s-46.25,67.97-46.25,67.97l25.42-90.37-19.33,31.62-9.81-36.52-36.06,77.03,6.92-64.05,7.21-45.53-49.9,58.69,20.76-74.32-16.85,32.03,1.85-41.26-40.75,76.34-8.87-15.75-25.68,67.49v-96.85s0-81.99,0-81.99c0-12.64,10.24-22.88,22.88-22.88h197.06Z"/><g><rect class="cls-11" x="160.88" y="176.7" width="127.84" height="3.6" transform="translate(199.95 464.47) rotate(-123.48)"/><rect class="cls-1" x="32.77" y="136.75" width="90.01" height="3.7" transform="translate(5.09 279.94) rotate(-123.48)"/><rect class="cls-10" x="135.23" y="158.38" width="124.99" height="3.6" transform="translate(173.21 413.46) rotate(-123.48)"/><rect class="cls-13" x="121.03" y="198.27" width="188.14" height="6.84" transform="translate(165.55 492.36) rotate(-123.48)"/><rect class="cls-7" x="207.5" y="153.93" width="69.5" height="6.84" transform="translate(244.66 446.21) rotate(-123.48)"/><rect class="cls-4" x="93.99" y="158.44" width="121.09" height="2.63" transform="translate(106.55 376.78) rotate(-123.48)"/><rect class="cls-8" x="92.16" y="133.8" width="70.36" height="3.6" transform="translate(84.5 316.61) rotate(-123.48)"/><rect class="cls-14" x="77.64" y="167.67" width="124.99" height="3.6" transform="translate(76.1 379.85) rotate(-123.48)"/><rect class="cls-9" x="69.91" y="189.86" width="141.49" height="6.84" transform="translate(57.05 417.22) rotate(-123.48)"/><rect class="cls-6" x="59.02" y="154.4" width="73.23" height="1.24" transform="translate(19.11 320.3) rotate(-123.48)"/><rect class="cls-5" x="222.5" y="137.68" width="73.23" height="1.24" transform="translate(286.72 430.71) rotate(-123.48)"/><rect class="cls-15" x="244.16" y="148.4" width="73.23" height="4.18" transform="translate(310.17 467.69) rotate(-123.48)"/></g><path class="cls-12" d="m64.92,120.4c1.12.16,2.28.24,3.46.24,2.71,12.52,15.25,21.99,30.33,21.99,5.56,0,10.77-1.29,15.27-3.55,6.42,5.37,14.68,8.61,23.7,8.61,13.26,0,24.88-6.99,31.4-17.48,4.87,2.21,10.47,3.48,16.44,3.48,9.88,0,18.77-3.46,24.95-8.97,5.88,10.73,17.4,17.92,30.57,17.58,7.85-.2,15.07-3.15,20.74-7.9,4.14,2.08,8.93,3.28,14.04,3.28,13.8,0,25.28-8.67,27.76-20.14,10.62-3.65,15.77-11.62,17.25-20.02,1.65-9.37-5.67-17.93-15.19-17.9l-237.45.61c-24.78.06-27.81,36.65-3.28,40.16Z"/><path class="cls-2" d="m158.65,104.07c25.05.3,50.09.98,75.12,2.07,6.3.27,12.59.57,18.89.89,3.15.16,6.29.33,9.44.5,2.4.13,5.06,0,7.34.91,1.84.73,2.84,2.55,1.24,4.12-1.47,1.45-3.71,2.06-5.68,2.45-6.01,1.19-12.06,2.23-18.11,3.18-12.11,1.9-24.26,3.2-36.46,4.34-4.89.46-9.84,1.02-14.56,2.42-2.29.68-4.54,1.56-6.64,2.72-1.8.99-4.19,2.34-5.34,4.09-3.1,4.71,6.67,6.99,9.36,7.84,5.55,1.77,11.25,3.03,16.99,3.98,11.59,1.91,23.35,2.62,35.07,3.29,25.05,1.42,50.14,1.84,75.22,2.15,3.16.04,6.31.08,9.47.11,1.45.02,1.45-2.23,0-2.25-25.08-.29-50.18-.59-75.24-1.77-12.15-.57-24.36-1.18-36.44-2.63-5.78-.7-11.53-1.65-17.19-3.02-2.82-.68-5.62-1.47-8.38-2.38-1.31-.43-2.6-.89-3.89-1.38-.94-.36-2.68-.86-3.15-1.88s1.27-1.97,1.93-2.46c1.01-.75,2.1-1.42,3.22-2,2.19-1.15,4.53-1.96,6.91-2.58,4.91-1.28,9.98-1.74,15.02-2.19,12.1-1.06,24.15-2.52,36.14-4.44,3.07-.49,6.13-1.01,9.19-1.56,2.88-.52,5.83-.93,8.67-1.66,3.32-.86,8.37-3.43,6.66-7.69s-8-3.76-11.6-3.96c-6.21-.34-12.42-.66-18.64-.95-25.02-1.18-50.06-1.97-75.11-2.36-3.15-.05-6.3-.09-9.46-.13-1.45-.02-1.45,2.23,0,2.25h0Z"/></svg>