<?xml version="1.0" encoding="UTF-8"?><svg id="logo" xmlns="http://www.w3.org/2000/svg" xmlns:xlink="http://www.w3.org/1999/xlink" viewBox="0 0 350 350"><defs><style>.cls-1{fill:url(#linear-gradient-2);}.cls-2{fill:url(#New_Gradient_Swatch_3-4);}.cls-3{fill:url(#New_Gradient_Swatch_3-2);}.cls-4{fill:url(#New_Gradient_Swatch_3);}.cls-5{fill:url(#New_Gradient_Swatch_3-3);}.cls-6{fill:#f3f3ff;}.cls-7{fill:#fdbf30;}.cls-8{fill:url(#New_Gradient_Swatch_1);}.cls-9{fill:url(#linear-gradient-3);}.cls-10{fill:url(#linear-gradient);}.cls-11{fill:#6aa3aa;}.cls-12{fill:url(#linear-gradient-4);}</style><linearGradient id="linear-gradient" x1="111.44" y1="175" x2="276.23" y2="175" gradientUnits="userSpaceOnUse"><stop offset="0" stop-color="#6aa3aa" stop-opacity=".5"/><stop offset=".09" stop-color="#8cb5ba" stop-opacity=".64"/><stop offset=".19" stop-color="#acc6c9" stop-opacity=".77"/><stop offset=".28" stop-color="#c5d4d6" stop-opacity=".87"/><stop offset=".37" stop-color="#d7dede" stop-opacity=".94"/><stop offset=".45" stop-color="#e2e3e4" stop-opacity=".98"/><stop offset=".51" stop-color="#e6e6e6"/><stop offset=".56" stop-color="#dee2e2" stop-opacity=".95"/><stop offset=".67" stop-color="#cbd7d9" stop-opacity=".82"/><stop offset=".81" stop-color="#abc6c9" stop-opacity=".61"/><stop offset=".98" stop-color="#80afb5" stop-opacity=".33"/><stop offset="1" stop-color="#7cadb3" stop-opacity=".3"/></linearGradient><linearGradient id="linear-gradient-2" x1="193.83" y1="246.05" x2="193.83" y2="31.11" gradientUnits="userSpaceOnUse"><stop offset="0" stop-color="blue"/><stop offset=".23" stop-color="#370bc3"/><stop offset=".5" stop-color="#711683"/><stop offset=".73" stop-color="#9c1f54"/><stop offset=".9" stop-color="#b72537"/><stop offset="1" stop-color="#c1272d"/></linearGradient><linearGradient id="linear-gradient-3" x1="157.43" y1="223.18" x2="228.27" y2="223.18" gradientUnits="userSpaceOnUse"><stop offset="0" stop-color="#ffff9f"/><stop offset="1" stop-color="#fdbf30"/></linearGradient><linearGradient id="linear-gradient-4" x1="146.03" y1="232.34" x2="216.87" y2="232.34" gradientUnits="userSpaceOnUse"><stop offset="0" stop-color="#ffff9f"/><stop offset=".3" stop-color="#fee674"/><stop offset=".6" stop-color="#fdd14f"/><stop offset=".84" stop-color="#fdc338"/><stop offset="1" stop-color="#fdbf30"/></linearGradient><linearGradient id="New_Gradient_Swatch_1" x1="214.83" y1="236.61" x2="263.69" y2="236.61" gradientUnits="userSpaceOnUse"><stop offset="0" stop-color="#fdbf30"/><stop offset="1" stop-color="#ffff9f"/></linearGradient><linearGradient id="New_Gradient_Swatch_3" x1="399.29" y1="652.59" x2="453.49" y2="652.59" gradientTransform="translate(367.84 280.82) rotate(99.17) scale(.84 .29) skewX(-31.23)" gradientUnits="userSpaceOnUse"><stop offset="0" stop-color="#002dc8"/><stop offset=".15" stop-color="#3245dd"/><stop offset=".3" stop-color="#5a58ef"/><stop offset=".41" stop-color="#7264fa"/><stop offset=".48" stop-color="#7c69fe"/><stop offset=".55" stop-color="#8078f7" stop-opacity=".92"/><stop offset=".76" stop-color="#8ea6e5" stop-opacity=".69"/><stop offset=".92" stop-color="#97c2da" stop-opacity=".55"/><stop offset="1" stop-color="#9bcdd6" stop-opacity=".5"/></linearGradient><linearGradient id="New_Gradient_Swatch_3-2" x1="230.62" y1="409.2" x2="284.82" y2="409.2" gradientTransform="translate(386.94 298.41) rotate(106.01) scale(.87 .5) skewX(-26.39)" xlink:href="#New_Gradient_Swatch_3"/><linearGradient id="New_Gradient_Swatch_3-3" x1="142.39" y1="296.16" x2="206.79" y2="296.16" gradientTransform="translate(368 314.89) rotate(110.38) scale(.89 .63) skewX(-21.7)" xlink:href="#New_Gradient_Swatch_3"/><linearGradient id="New_Gradient_Swatch_3-4" x1="1082.38" y1="-18.31" x2="1122.96" y2="-18.31" gradientTransform="translate(359.13 -155.35) rotate(115.46) scale(.44 .37) skewX(-14.57)" xlink:href="#New_Gradient_Swatch_3"/></defs><path class="cls-10" d="m222.49,178.34V40.66c0-15.76-12.9-28.66-28.66-28.66s-28.66,12.9-28.66,28.66v137.68c-31.38,11.64-53.74,41.84-53.74,77.27,0,45.51,36.89,82.4,82.4,82.4s82.4-36.89,82.4-82.4c0-35.43-22.36-65.62-53.74-77.27Z"/><rect class="cls-1" x="178.31" y="31.11" width="31.05" height="214.95" rx="12" ry="12"/><circle class="cls-7" cx="213.21" cy="231.52" r="41.12"/><rect class="cls-9" x="157.43" y="221.75" width="70.84" height="2.85"/><rect class="cls-12" x="146.03" y="229.49" width="70.84" height="5.7"/><rect class="cls-8" x="214.83" y="233.97" width="48.86" height="5.29"/><path d="m122.38,46.84v5.39h-6.59v-6.31c0-3.78,2.08-5.67,6.25-5.67h5.5c4.2,0,6.3,1.89,6.3,5.67v4.07c0,2.83-.86,5.58-2.58,8.25l-7.51,13.13h10.26v5.04h-18.05v-4.76l9.34-15.13c1.34-2.02,2.01-4.24,2.01-6.65v-3.04c0-.61-.11-1.02-.34-1.23-.23-.21-.65-.32-1.26-.32h-1.66c-.65,0-1.09.11-1.32.32-.23.21-.34.62-.34,1.23Z"/><path d="m157.22,45.93v24.82c0,3.78-2.08,5.67-6.25,5.67h-6.65c-4.17,0-6.25-1.89-6.25-5.67v-24.82c0-3.78,2.08-5.67,6.25-5.67h6.65c4.16,0,6.25,1.89,6.25,5.67Zm-6.59,23.9v-22.98c0-.61-.12-1.02-.34-1.23-.23-.21-.67-.32-1.32-.32h-2.64c-.61,0-1.03.11-1.26.32-.23.21-.34.62-.34,1.23v22.98c0,.61.11,1.02.34,1.23.23.21.65.32,1.26.32h2.64c.65,0,1.09-.1,1.32-.32.23-.21.34-.62.34-1.23Z"/><path d="m85.18,94.26h-10.89v11.01h8.88v4.81h-8.88v15.3h-6.65v-36.17h17.54v5.04Z"/><path d="m94.46,89.21h6.99c4.16,0,6.25,1.89,6.25,5.67v24.82c0,3.78-2.08,5.67-6.25,5.67h-6.99c-4.17,0-6.25-1.89-6.25-5.67v-24.82c0-3.78,2.08-5.67,6.25-5.67Zm6.65,29.58v-22.98c0-.61-.12-1.02-.34-1.23-.23-.21-.65-.32-1.26-.32h-3.04c-.65,0-1.09.11-1.32.32-.23.21-.34.62-.34,1.23v22.98c0,.61.12,1.02.34,1.23.23.21.67.32,1.32.32h3.04c.61,0,1.03-.1,1.26-.32.23-.21.34-.62.34-1.23Z"/><path d="m125.87,89.21h6.59v30.49c0,3.78-2.08,5.67-6.25,5.67h-6.99c-4.17,0-6.25-1.89-6.25-5.67v-30.49h6.59v29.58c0,.61.12,1.02.34,1.23.23.21.65.32,1.26.32h3.04c.65,0,1.09-.1,1.32-.32.23-.21.34-.62.34-1.23v-29.58Z"/><path d="m144.5,111.28v14.1h-6.59v-36.17h13.3c4.17,0,6.25,1.89,6.25,5.67v10.72c0,3.13-1.4,4.97-4.18,5.5l6.02,14.27h-7.11l-5.5-14.1h-2.18Zm0-17.02v12.15h4.76c.61,0,1.03-.1,1.26-.31.23-.21.34-.62.34-1.23v-9.06c0-.61-.11-1.02-.34-1.23-.23-.21-.65-.32-1.26-.32h-4.76Z"/><path d="m90.51,150.15h-6.65v-5.62c0-.61-.11-1.02-.34-1.23-.23-.21-.65-.32-1.26-.32h-2.69c-.61,0-1.03.11-1.26.32-.23.21-.34.62-.34,1.23v23.5c0,.61.12,1.02.34,1.23.23.21.65.32,1.26.32h2.69c.61,0,1.03-.1,1.26-.32.23-.21.34-.62.34-1.23v-5.5h6.65v6.19c0,3.78-2.08,5.67-6.25,5.67h-6.71c-4.17,0-6.25-1.89-6.25-5.67v-24.88c0-3.78,2.08-5.67,6.25-5.67h6.71c4.16,0,6.25,1.89,6.25,5.67v6.31Z"/><path d="m109.99,174.34l-1.38-7.51h-7.91l-1.26,7.51h-6.59l7.28-36.17h8.88l7.62,36.17h-6.65Zm-8.43-12.5h6.13l-3.15-17.31-2.98,17.31Z"/><path d="m131.32,167.75v-7.74c0-.61-.11-1.02-.34-1.23-.23-.21-.65-.32-1.26-.32h-4.64c-3.94,0-5.9-1.91-5.9-5.73v-8.88c0-3.78,2.06-5.67,6.19-5.67h6.3c4.13,0,6.19,1.89,6.19,5.67v5.04h-6.65v-4.13c0-.61-.12-1.02-.34-1.23-.23-.21-.65-.32-1.26-.32h-2.18c-.65,0-1.09.11-1.32.32-.23.21-.34.62-.34,1.23v7.28c0,.61.11,1.02.34,1.23.23.21.67.31,1.32.31h4.53c4.01,0,6.02,1.87,6.02,5.62v9.46c0,3.78-2.08,5.67-6.25,5.67h-6.19c-4.17,0-6.25-1.89-6.25-5.67v-4.99h6.59v4.07c0,.61.12,1.02.34,1.23.23.21.67.32,1.32.32h2.18c.61,0,1.03-.1,1.26-.32.23-.21.34-.62.34-1.23Z"/><path d="m159.52,138.17v5.04h-6.36v31.12h-6.59v-31.12h-6.31v-5.04h19.26Z"/><rect class="cls-4" x="165.94" y="275.34" width="23.2" height="2.11" transform="translate(44.97 576.97) rotate(-123.48)"/><rect class="cls-3" x="156.67" y="286.53" width="41.22" height="2.11" transform="translate(35.22 594.11) rotate(-123.48)"/><rect class="cls-5" x="144.16" y="295.1" width="62.12" height="4.02" transform="translate(24.09 607.18) rotate(-123.48)"/><rect class="cls-2" x="145.94" y="282.33" width="24.15" height=".73" transform="translate(9.41 570.45) rotate(-123.48)"/><path class="cls-6" d="m208.81,255.08c-3.52-3.14-8.59-5.11-14.22-5.11-3.4,0-6.59.72-9.37,1.98-3.71-5.98-10.34-9.96-17.89-9.96-5.14,0-9.85,1.84-13.5,4.9-2.57-1.28-5.54-2.02-8.7-2.02-8.59,0-15.74,5.4-17.28,12.53-4.75,2.24-8.45,6.32-10.19,11.33-.81,2.34.94,4.78,3.42,4.78l102.47-.69c3.05,0,5.13-3.16,3.86-5.94-1.76-3.87-4.86-7-8.7-8.81,0,0-3.84-2.86-9.91-3Z"/><path class="cls-11" d="m322.42,263.22c-1.82-5.79-6.92-9.26-12.56-10.81-6.46-1.78-13.18-1.21-19.66.17-15.64,3.34-29.65,11.79-42.22,21.41s-24.31,21.04-36.83,31.14c-12.66,10.22-26.54,19.25-42.41,23.49-8.78,2.34-17.86,3.34-26.92,3.63-7.71.25-16.27.63-23.45-2.66-1.68-.77-3.24-1.75-4.64-2.95-.87-.74-2.14.52-1.27,1.27,5.65,4.82,13.15,5.99,20.34,6.19,8.62.25,17.35-.24,25.87-1.55s16.42-3.59,24.11-7.05c7.22-3.26,14-7.43,20.43-12.04,12.99-9.33,24.53-20.44,36.76-30.72,12.22-10.27,25.45-19.99,40.57-25.49,6.87-2.5,14.38-4.43,21.74-4.15,5.88.22,12.69,1.86,16.45,6.77.89,1.15,1.53,2.46,1.96,3.85.34,1.1,2.07.63,1.73-.48h0Z"/></svg>